<svg width="245" height="83" viewBox="0 0 245 83" fill="none" xmlns="http://www.w3.org/2000/svg">
<path d="M154.205 77.8125H151.214V3.89062C151.214 1.74187 149.607 0 147.625 0H97.375C95.3927 0 93.7857 1.74187 93.7857 3.89062V77.8125H90.7946C89.8036 77.8125 89 78.6835 89 79.7578V83H156V79.7578C156 78.6835 155.196 77.8125 154.205 77.8125ZM108.143 12.3203C108.143 11.246 108.946 10.375 109.937 10.375H115.92C116.911 10.375 117.714 11.246 117.714 12.3203V18.8047C117.714 19.879 116.911 20.75 115.92 20.75H109.937C108.946 20.75 108.143 19.879 108.143 18.8047V12.3203ZM108.143 27.8828C108.143 26.8085 108.946 25.9375 109.937 25.9375H115.92C116.911 25.9375 117.714 26.8085 117.714 27.8828V34.3672C117.714 35.4415 116.911 36.3125 115.92 36.3125H109.937C108.946 36.3125 108.143 35.4415 108.143 34.3672V27.8828ZM115.92 51.875H109.937C108.946 51.875 108.143 51.004 108.143 49.9297V43.4453C108.143 42.371 108.946 41.5 109.937 41.5H115.92C116.911 41.5 117.714 42.371 117.714 43.4453V49.9297C117.714 51.004 116.911 51.875 115.92 51.875ZM127.286 77.8125H117.714V64.1953C117.714 63.121 118.518 62.25 119.509 62.25H125.491C126.482 62.25 127.286 63.121 127.286 64.1953V77.8125ZM136.857 49.9297C136.857 51.004 136.054 51.875 135.062 51.875H129.08C128.089 51.875 127.286 51.004 127.286 49.9297V43.4453C127.286 42.371 128.089 41.5 129.08 41.5H135.062C136.054 41.5 136.857 42.371 136.857 43.4453V49.9297ZM136.857 34.3672C136.857 35.4415 136.054 36.3125 135.062 36.3125H129.08C128.089 36.3125 127.286 35.4415 127.286 34.3672V27.8828C127.286 26.8085 128.089 25.9375 129.08 25.9375H135.062C136.054 25.9375 136.857 26.8085 136.857 27.8828V34.3672ZM136.857 18.8047C136.857 19.879 136.054 20.75 135.062 20.75H129.08C128.089 20.75 127.286 19.879 127.286 18.8047V12.3203C127.286 11.246 128.089 10.375 129.08 10.375H135.062C136.054 10.375 136.857 11.246 136.857 12.3203V18.8047Z" fill="white" fill-opacity="0.5"/>
<path d="M42.2644 49L42.1744 32.305L34.0744 45.895H30.1144L22.0594 32.755V49H13.8244V17.5H21.1594L32.2294 35.68L43.0294 17.5H50.3644L50.4544 49H42.2644Z" fill="#470283"/>
<path d="M67.5589 49.18C65.3389 49.18 63.3289 48.67 61.5289 47.65C59.7589 46.63 58.3639 45.22 57.3439 43.42C56.3239 41.59 55.8139 39.535 55.8139 37.255C55.8139 34.975 56.3239 32.935 57.3439 31.135C58.3639 29.305 59.7589 27.88 61.5289 26.86C63.3289 25.84 65.3389 25.33 67.5589 25.33C69.7789 25.33 71.7739 25.84 73.5439 26.86C75.3439 27.88 76.7539 29.305 77.7739 31.135C78.7939 32.935 79.3039 34.975 79.3039 37.255C79.3039 39.535 78.7939 41.59 77.7739 43.42C76.7539 45.22 75.3439 46.63 73.5439 47.65C71.7739 48.67 69.7789 49.18 67.5589 49.18ZM67.5589 47.155C69.3589 47.155 70.9639 46.735 72.3739 45.895C73.8139 45.055 74.9389 43.885 75.7489 42.385C76.5889 40.885 77.0089 39.175 77.0089 37.255C77.0089 35.335 76.5889 33.625 75.7489 32.125C74.9389 30.625 73.8139 29.455 72.3739 28.615C70.9639 27.775 69.3589 27.355 67.5589 27.355C65.7589 27.355 64.1389 27.775 62.6989 28.615C61.2889 29.455 60.1639 30.625 59.3239 32.125C58.5139 33.625 58.1089 35.335 58.1089 37.255C58.1089 39.175 58.5139 40.885 59.3239 42.385C60.1639 43.885 61.2889 45.055 62.6989 45.895C64.1389 46.735 65.7589 47.155 67.5589 47.155ZM115.534 25.33C118.444 25.33 120.724 26.185 122.374 27.895C124.054 29.605 124.894 32.065 124.894 35.275V49H122.644V35.455C122.644 32.815 121.999 30.805 120.709 29.425C119.419 28.045 117.619 27.355 115.309 27.355C112.669 27.355 110.569 28.18 109.009 29.83C107.479 31.48 106.714 33.7 106.714 36.49V49H104.464V35.455C104.464 32.815 103.819 30.805 102.529 29.425C101.239 28.045 99.4392 27.355 97.1292 27.355C94.4892 27.355 92.3892 28.18 90.8292 29.83C89.2992 31.48 88.5342 33.7 88.5342 36.49V49H86.2842V25.51H88.4442V30.55C89.2242 28.9 90.3792 27.625 91.9092 26.725C93.4692 25.795 95.3142 25.33 97.4442 25.33C99.5742 25.33 101.374 25.81 102.844 26.77C104.344 27.73 105.409 29.14 106.039 31C106.819 29.26 108.034 27.88 109.684 26.86C111.364 25.84 113.314 25.33 115.534 25.33ZM184.396 37.795H164.191C164.251 39.625 164.716 41.26 165.586 42.7C166.456 44.11 167.626 45.205 169.096 45.985C170.596 46.765 172.276 47.155 174.136 47.155C175.666 47.155 177.076 46.885 178.366 46.345C179.686 45.775 180.781 44.95 181.651 43.87L182.956 45.355C181.936 46.585 180.646 47.53 179.086 48.19C177.556 48.85 175.891 49.18 174.091 49.18C171.751 49.18 169.666 48.67 167.836 47.65C166.006 46.63 164.566 45.22 163.516 43.42C162.496 41.62 161.986 39.565 161.986 37.255C161.986 34.975 162.466 32.935 163.426 31.135C164.416 29.305 165.766 27.88 167.476 26.86C169.186 25.84 171.106 25.33 173.236 25.33C175.366 25.33 177.271 25.84 178.951 26.86C180.661 27.85 181.996 29.245 182.956 31.045C183.946 32.845 184.441 34.885 184.441 37.165L184.396 37.795ZM173.236 27.31C171.586 27.31 170.101 27.685 168.781 28.435C167.461 29.155 166.396 30.19 165.586 31.54C164.806 32.86 164.356 34.36 164.236 36.04H182.236C182.146 34.36 181.696 32.86 180.886 31.54C180.076 30.22 179.011 29.185 177.691 28.435C176.371 27.685 174.886 27.31 173.236 27.31ZM193.561 30.64C194.281 28.93 195.406 27.625 196.936 26.725C198.466 25.795 200.326 25.33 202.516 25.33V27.535L201.976 27.49C199.366 27.49 197.326 28.315 195.856 29.965C194.386 31.585 193.651 33.85 193.651 36.76V49H191.401V25.51H193.561V30.64ZM229.646 25.51V46.48C229.646 50.38 228.701 53.26 226.811 55.12C224.921 56.98 222.071 57.91 218.261 57.91C216.101 57.91 214.061 57.58 212.141 56.92C210.221 56.26 208.676 55.345 207.506 54.175L208.721 52.465C209.891 53.545 211.301 54.385 212.951 54.985C214.601 55.585 216.356 55.885 218.216 55.885C221.336 55.885 223.646 55.135 225.146 53.635C226.646 52.165 227.396 49.87 227.396 46.75V42.79C226.436 44.5 225.101 45.82 223.391 46.75C221.681 47.68 219.761 48.145 217.631 48.145C215.441 48.145 213.446 47.665 211.646 46.705C209.876 45.715 208.481 44.35 207.461 42.61C206.441 40.87 205.931 38.905 205.931 36.715C205.931 34.525 206.441 32.56 207.461 30.82C208.481 29.08 209.876 27.73 211.646 26.77C213.446 25.81 215.441 25.33 217.631 25.33C219.791 25.33 221.741 25.81 223.481 26.77C225.221 27.73 226.556 29.08 227.486 30.82V25.51H229.646ZM217.811 46.12C219.641 46.12 221.291 45.73 222.761 44.95C224.231 44.14 225.371 43.03 226.181 41.62C227.021 40.18 227.441 38.545 227.441 36.715C227.441 34.885 227.021 33.265 226.181 31.855C225.371 30.445 224.231 29.35 222.761 28.57C221.291 27.76 219.641 27.355 217.811 27.355C215.981 27.355 214.331 27.76 212.861 28.57C211.421 29.35 210.281 30.445 209.441 31.855C208.631 33.265 208.226 34.885 208.226 36.715C208.226 38.545 208.631 40.18 209.441 41.62C210.281 43.03 211.421 44.14 212.861 44.95C214.331 45.73 215.981 46.12 217.811 46.12Z" fill="black"/>
<path d="M145.975 25.33C148.165 25.33 150.145 25.84 151.915 26.86C153.685 27.85 155.065 29.26 156.055 31.09C157.075 32.89 157.585 34.945 157.585 37.255C157.585 39.565 157.075 41.62 156.055 43.42C155.065 45.22 153.685 46.63 151.915 47.65C150.145 48.67 148.165 49.18 145.975 49.18C143.875 49.18 141.97 48.685 140.26 47.695C138.58 46.675 137.275 45.265 136.345 43.465V49H134.185V15.61H136.435V30.865C137.365 29.125 138.67 27.775 140.35 26.815C142.03 25.825 143.905 25.33 145.975 25.33ZM145.84 47.155C147.64 47.155 149.26 46.735 150.7 45.895C152.14 45.055 153.265 43.885 154.075 42.385C154.915 40.885 155.335 39.175 155.335 37.255C155.335 35.335 154.915 33.625 154.075 32.125C153.265 30.625 152.14 29.455 150.7 28.615C149.26 27.775 147.64 27.355 145.84 27.355C144.04 27.355 142.42 27.775 140.98 28.615C139.57 29.455 138.445 30.625 137.605 32.125C136.795 33.625 136.39 35.335 136.39 37.255C136.39 39.175 136.795 40.885 137.605 42.385C138.445 43.885 139.57 45.055 140.98 45.895C142.42 46.735 144.04 47.155 145.84 47.155Z" fill="#782BDA"/>
<path d="M86.1139 68.06C85.2872 68.06 84.5072 67.9267 83.7739 67.66C83.0406 67.3933 82.4739 67.0533 82.0739 66.64L82.3139 66.32C82.7139 66.7067 83.2472 67.0333 83.9139 67.3C84.5939 67.5533 85.3272 67.68 86.1139 67.68C87.2872 67.68 88.1539 67.48 88.7139 67.08C89.2739 66.6667 89.5539 66.1 89.5539 65.38C89.5539 64.86 89.4006 64.4533 89.0939 64.16C88.8006 63.8533 88.4339 63.6333 87.9939 63.5C87.5672 63.3533 86.9739 63.2067 86.2139 63.06C85.4006 62.9133 84.7406 62.76 84.2339 62.6C83.7406 62.4267 83.3206 62.16 82.9739 61.8C82.6406 61.4267 82.4739 60.9133 82.4739 60.26C82.4739 59.5133 82.7806 58.8867 83.3939 58.38C84.0206 57.86 84.9339 57.6 86.1339 57.6C86.7739 57.6 87.4072 57.7 88.0339 57.9C88.6606 58.0867 89.1672 58.34 89.5539 58.66L89.3139 58.98C88.9139 58.66 88.4339 58.4133 87.8739 58.24C87.3139 58.0667 86.7339 57.98 86.1339 57.98C85.0539 57.98 84.2406 58.1933 83.6939 58.62C83.1606 59.0333 82.8939 59.58 82.8939 60.26C82.8939 60.8067 83.0472 61.24 83.3539 61.56C83.6606 61.8667 84.0406 62.0933 84.4939 62.24C84.9472 62.3867 85.5472 62.5267 86.2939 62.66C87.1072 62.82 87.7539 62.98 88.2339 63.14C88.7139 63.3 89.1206 63.56 89.4539 63.92C89.7872 64.2667 89.9539 64.7533 89.9539 65.38C89.9539 66.1933 89.6272 66.8467 88.9739 67.34C88.3206 67.82 87.3672 68.06 86.1139 68.06ZM96.7917 68.06C95.845 68.06 94.985 67.84 94.2117 67.4C93.4517 66.9467 92.8517 66.32 92.4117 65.52C91.985 64.72 91.7717 63.82 91.7717 62.82C91.7717 61.82 91.985 60.9267 92.4117 60.14C92.8517 59.34 93.4517 58.72 94.2117 58.28C94.985 57.8267 95.845 57.6 96.7917 57.6C97.7384 57.6 98.5917 57.8267 99.3517 58.28C100.125 58.72 100.725 59.34 101.152 60.14C101.592 60.9267 101.812 61.82 101.812 62.82C101.812 63.82 101.592 64.72 101.152 65.52C100.725 66.32 100.125 66.9467 99.3517 67.4C98.5917 67.84 97.7384 68.06 96.7917 68.06ZM96.7917 67.68C97.6584 67.68 98.445 67.4733 99.1517 67.06C99.8584 66.6467 100.412 66.0733 100.812 65.34C101.212 64.5933 101.412 63.7533 101.412 62.82C101.412 61.8867 101.212 61.0533 100.812 60.32C100.412 59.5733 99.8584 59 99.1517 58.6C98.445 58.1867 97.6584 57.98 96.7917 57.98C95.925 57.98 95.1384 58.1867 94.4317 58.6C93.725 59 93.1717 59.5733 92.7717 60.32C92.3717 61.0533 92.1717 61.8867 92.1717 62.82C92.1717 63.7533 92.3717 64.5933 92.7717 65.34C93.1717 66.0733 93.725 66.6467 94.4317 67.06C95.1384 67.4733 95.925 67.68 96.7917 67.68ZM105.199 53.16H105.599V68H105.199V53.16ZM118.879 57.66V68H118.479V65.26C118.172 66.14 117.659 66.8267 116.939 67.32C116.219 67.8133 115.345 68.06 114.319 68.06C112.985 68.06 111.945 67.6933 111.199 66.96C110.452 66.2133 110.079 65.1467 110.079 63.76V57.66H110.479V63.76C110.479 65.0267 110.812 66 111.479 66.68C112.145 67.3467 113.085 67.68 114.299 67.68C115.592 67.68 116.612 67.28 117.359 66.48C118.105 65.6667 118.479 64.6 118.479 63.28V57.66H118.879ZM127.34 68.06C126.367 68.06 125.493 67.84 124.72 67.4C123.947 66.9467 123.34 66.3267 122.9 65.54C122.473 64.74 122.26 63.8333 122.26 62.82C122.26 61.8067 122.473 60.9067 122.9 60.12C123.34 59.32 123.947 58.7 124.72 58.26C125.493 57.82 126.367 57.6 127.34 57.6C128.1 57.6 128.8 57.7467 129.44 58.04C130.093 58.32 130.633 58.7333 131.06 59.28L130.78 59.58C130.393 59.0467 129.9 58.6467 129.3 58.38C128.7 58.1133 128.047 57.98 127.34 57.98C126.447 57.98 125.64 58.1867 124.92 58.6C124.213 59 123.66 59.5733 123.26 60.32C122.86 61.0533 122.66 61.8867 122.66 62.82C122.66 63.7667 122.86 64.6067 123.26 65.34C123.66 66.0733 124.213 66.6467 124.92 67.06C125.64 67.4733 126.447 67.68 127.34 67.68C128.047 67.68 128.7 67.5467 129.3 67.28C129.9 67.0133 130.393 66.6133 130.78 66.08L131.06 66.38C130.633 66.9267 130.093 67.3467 129.44 67.64C128.8 67.92 128.1 68.06 127.34 68.06ZM126.68 72.26C126.107 72.26 125.613 72.08 125.2 71.72L125.42 71.42C125.753 71.7267 126.167 71.88 126.66 71.88C127.087 71.88 127.433 71.7733 127.7 71.56C127.967 71.3467 128.1 71.0533 128.1 70.68C128.1 70.32 127.973 70.0267 127.72 69.8C127.467 69.5867 127.12 69.48 126.68 69.48H126.36L126.8 67.9H127.18L126.84 69.12C127.347 69.1467 127.747 69.3 128.04 69.58C128.347 69.86 128.5 70.2267 128.5 70.68C128.5 71.16 128.327 71.54 127.98 71.82C127.647 72.1133 127.213 72.26 126.68 72.26ZM137.983 68.06C137.036 68.06 136.176 67.84 135.403 67.4C134.643 66.9467 134.043 66.32 133.603 65.52C133.176 64.72 132.963 63.82 132.963 62.82C132.963 61.82 133.176 60.9267 133.603 60.14C134.043 59.34 134.643 58.72 135.403 58.28C136.176 57.8267 137.036 57.6 137.983 57.6C138.93 57.6 139.783 57.8267 140.543 58.28C141.316 58.72 141.916 59.34 142.343 60.14C142.783 60.9267 143.003 61.82 143.003 62.82C143.003 63.82 142.783 64.72 142.343 65.52C141.916 66.32 141.316 66.9467 140.543 67.4C139.783 67.84 138.93 68.06 137.983 68.06ZM137.983 67.68C138.85 67.68 139.636 67.4733 140.343 67.06C141.05 66.6467 141.603 66.0733 142.003 65.34C142.403 64.5933 142.603 63.7533 142.603 62.82C142.603 61.8867 142.403 61.0533 142.003 60.32C141.603 59.5733 141.05 59 140.343 58.6C139.636 58.1867 138.85 57.98 137.983 57.98C137.116 57.98 136.33 58.1867 135.623 58.6C134.916 59 134.363 59.5733 133.963 60.32C133.563 61.0533 133.363 61.8867 133.363 62.82C133.363 63.7533 133.563 64.5933 133.963 65.34C134.363 66.0733 134.916 66.6467 135.623 67.06C136.33 67.4733 137.116 67.68 137.983 67.68ZM139.243 55.62C138.976 55.62 138.736 55.56 138.523 55.44C138.323 55.3067 138.09 55.1133 137.823 54.86C137.61 54.66 137.416 54.5067 137.243 54.4C137.083 54.2933 136.91 54.24 136.723 54.24C136.403 54.24 136.15 54.36 135.963 54.6C135.776 54.84 135.67 55.1667 135.643 55.58H135.263C135.29 55.06 135.43 54.6467 135.683 54.34C135.95 54.02 136.296 53.86 136.723 53.86C136.99 53.86 137.223 53.9267 137.423 54.06C137.636 54.18 137.876 54.3667 138.143 54.62C138.356 54.82 138.543 54.9733 138.703 55.08C138.876 55.1867 139.056 55.24 139.243 55.24C139.563 55.24 139.816 55.1267 140.003 54.9C140.19 54.66 140.296 54.34 140.323 53.94H140.703C140.676 54.4467 140.53 54.8533 140.263 55.16C140.01 55.4667 139.67 55.62 139.243 55.62ZM154.75 62.82H145.55C145.55 63.7533 145.757 64.5933 146.17 65.34C146.583 66.0733 147.15 66.6467 147.87 67.06C148.603 67.4733 149.423 67.68 150.33 67.68C151.037 67.68 151.697 67.5467 152.31 67.28C152.937 67 153.45 66.6 153.85 66.08L154.13 66.36C153.677 66.9067 153.117 67.3267 152.45 67.62C151.783 67.9133 151.077 68.06 150.33 68.06C149.343 68.06 148.457 67.84 147.67 67.4C146.897 66.9467 146.283 66.32 145.83 65.52C145.39 64.72 145.17 63.82 145.17 62.82C145.17 61.82 145.377 60.9267 145.79 60.14C146.203 59.34 146.77 58.72 147.49 58.28C148.223 57.8267 149.043 57.6 149.95 57.6C150.843 57.6 151.657 57.82 152.39 58.26C153.123 58.7 153.697 59.3067 154.11 60.08C154.537 60.8533 154.75 61.7333 154.75 62.72V62.82ZM149.95 57.98C149.15 57.98 148.423 58.1733 147.77 58.56C147.117 58.9467 146.59 59.48 146.19 60.16C145.803 60.84 145.59 61.6 145.55 62.44H154.37C154.33 61.6 154.11 60.84 153.71 60.16C153.31 59.48 152.783 58.9467 152.13 58.56C151.477 58.1733 150.75 57.98 149.95 57.98ZM160.508 68.06C159.682 68.06 158.902 67.9267 158.168 67.66C157.435 67.3933 156.868 67.0533 156.468 66.64L156.708 66.32C157.108 66.7067 157.642 67.0333 158.308 67.3C158.988 67.5533 159.722 67.68 160.508 67.68C161.682 67.68 162.548 67.48 163.108 67.08C163.668 66.6667 163.948 66.1 163.948 65.38C163.948 64.86 163.795 64.4533 163.488 64.16C163.195 63.8533 162.828 63.6333 162.388 63.5C161.962 63.3533 161.368 63.2067 160.608 63.06C159.795 62.9133 159.135 62.76 158.628 62.6C158.135 62.4267 157.715 62.16 157.368 61.8C157.035 61.4267 156.868 60.9133 156.868 60.26C156.868 59.5133 157.175 58.8867 157.788 58.38C158.415 57.86 159.328 57.6 160.528 57.6C161.168 57.6 161.802 57.7 162.428 57.9C163.055 58.0867 163.562 58.34 163.948 58.66L163.708 58.98C163.308 58.66 162.828 58.4133 162.268 58.24C161.708 58.0667 161.128 57.98 160.528 57.98C159.448 57.98 158.635 58.1933 158.088 58.62C157.555 59.0333 157.288 59.58 157.288 60.26C157.288 60.8067 157.442 61.24 157.748 61.56C158.055 61.8667 158.435 62.0933 158.888 62.24C159.342 62.3867 159.942 62.5267 160.688 62.66C161.502 62.82 162.148 62.98 162.628 63.14C163.108 63.3 163.515 63.56 163.848 63.92C164.182 64.2667 164.348 64.7533 164.348 65.38C164.348 66.1933 164.022 66.8467 163.368 67.34C162.715 67.82 161.762 68.06 160.508 68.06Z" fill="black"/>
</svg>
