<svg width="99" height="20" viewBox="0 0 99 20" fill="none" xmlns="http://www.w3.org/2000/svg">
<path d="M12.1602 1.19922C12.0508 1.30859 11.9414 1.41797 11.832 1.52734C11.7227 1.62891 11.6367 1.75781 11.5742 1.91406C11.4805 1.92969 11.3828 1.94922 11.2812 1.97266C11.1797 1.99609 11.082 2.00781 10.9883 2.00781C10.9258 2.00781 10.8633 2 10.8008 1.98438C10.7383 1.96094 10.6758 1.94922 10.6133 1.94922C10.5586 1.94922 10.5312 1.97656 10.5312 2.03125C10.5312 2.08594 10.5156 2.12891 10.4844 2.16016C10.4219 2.13672 10.3555 2.12109 10.2852 2.11328C10.2148 2.10547 10.1445 2.10156 10.0742 2.10156C9.91016 2.10156 9.74609 2.12891 9.58203 2.18359C9.42578 2.23047 9.26953 2.28906 9.11328 2.35938C8.95703 2.42188 8.80078 2.48828 8.64453 2.55859C8.48828 2.62891 8.32812 2.68359 8.16406 2.72266C8.17188 2.73047 8.17578 2.75 8.17578 2.78125C8.17578 2.83594 8.16016 2.88281 8.12891 2.92188C8.09766 2.95312 8.08203 2.99609 8.08203 3.05078V3.08594C8.17578 3.28906 8.26953 3.48438 8.36328 3.67188C8.45703 3.85938 8.54688 4.05469 8.63281 4.25781C8.67969 4.35938 8.71875 4.45703 8.75 4.55078C8.78125 4.64453 8.81641 4.74609 8.85547 4.85547C8.87109 4.91797 8.89844 4.96094 8.9375 4.98438C8.97656 5 9.01562 5.02734 9.05469 5.06641C9.03906 5.11328 9.03125 5.15625 9.03125 5.19531C9.03125 5.34375 9.06641 5.48828 9.13672 5.62891C9.20703 5.76172 9.24219 5.89844 9.24219 6.03906C9.24219 6.07812 9.23438 6.12891 9.21875 6.19141C9.3125 6.32422 9.37891 6.47656 9.41797 6.64844C9.45703 6.82031 9.49219 6.99609 9.52344 7.17578C9.55469 7.34766 9.58594 7.51953 9.61719 7.69141C9.65625 7.85547 9.72266 8.00391 9.81641 8.13672C9.76172 8.23047 9.72656 8.33203 9.71094 8.44141C9.69531 8.54297 9.6875 8.64844 9.6875 8.75781C9.6875 9.00781 9.71094 9.26172 9.75781 9.51953C9.8125 9.76953 9.83984 10.0195 9.83984 10.2695C9.83984 10.4414 9.82031 10.582 9.78125 10.6914C9.79688 10.8086 9.83594 10.8945 9.89844 10.9492C9.86719 11.0039 9.85547 11.0703 9.86328 11.1484C9.87109 11.2188 9.85547 11.2812 9.81641 11.3359C9.85547 11.4922 9.875 11.6367 9.875 11.7695C9.875 11.9648 9.84766 12.1602 9.79297 12.3555C9.74609 12.543 9.72266 12.7383 9.72266 12.9414C9.72266 12.9961 9.72656 13.0469 9.73438 13.0938C9.74219 13.1484 9.75781 13.207 9.78125 13.2695C9.76562 13.3164 9.73438 13.3438 9.6875 13.3516C9.64844 13.3672 9.62109 13.3945 9.60547 13.4336V13.4688C9.60547 13.5859 9.58984 13.6875 9.55859 13.7734C9.53516 13.8672 9.50391 13.9531 9.46484 14.0312L9.35938 14.2773C9.32812 14.3633 9.30078 14.457 9.27734 14.5586C9.07422 14.668 8.87891 14.7734 8.69141 14.875C8.51172 14.9766 8.33594 15.1133 8.16406 15.2852C8.13281 15.293 8.08594 15.2969 8.02344 15.2969C7.96875 15.2969 7.91406 15.293 7.85938 15.2852C7.80469 15.2852 7.74609 15.2852 7.68359 15.2852C7.59766 15.2852 7.50781 15.2969 7.41406 15.3203C7.28906 15.2031 7.13672 15.1172 6.95703 15.0625C6.77734 15.0156 6.60938 14.9492 6.45312 14.8633C6.39844 14.793 6.33594 14.7305 6.26562 14.6758L6.05469 14.5117C5.98438 14.457 5.91797 14.4023 5.85547 14.3477C5.79297 14.293 5.73828 14.2227 5.69141 14.1367H5.52734C5.52734 14.1289 5.52734 14.1211 5.52734 14.1133C5.53516 14.1055 5.53906 14.0977 5.53906 14.0898C5.53906 14.0508 5.51953 14.0273 5.48047 14.0195C5.44141 14.0117 5.42969 13.9844 5.44531 13.9375C5.35156 13.8672 5.27344 13.7852 5.21094 13.6914C5.14844 13.5977 5.08594 13.5 5.02344 13.3984C4.96094 13.3047 4.89844 13.2109 4.83594 13.1172C4.77344 13.0312 4.69531 12.9531 4.60156 12.8828V12.8594C4.60156 12.8203 4.58984 12.7969 4.56641 12.7891C4.54297 12.7734 4.53906 12.7344 4.55469 12.6719C4.42969 12.5078 4.32422 12.3359 4.23828 12.1562C4.15234 11.9766 4.07031 11.793 3.99219 11.6055C3.92188 11.4102 3.84766 11.2188 3.76953 11.0312C3.69922 10.8438 3.61328 10.6641 3.51172 10.4922C3.49609 10.4141 3.48828 10.3359 3.48828 10.2578V10.0234C3.48828 9.79688 3.50781 9.58203 3.54688 9.37891C3.58594 9.16797 3.66016 8.96484 3.76953 8.76953C3.83203 8.75391 3.90234 8.75 3.98047 8.75781C4.06641 8.75781 4.14453 8.75781 4.21484 8.75781C4.28516 8.75781 4.35156 8.75391 4.41406 8.74609C4.48438 8.73047 4.54688 8.69531 4.60156 8.64062C4.59375 8.67188 4.60156 8.69531 4.625 8.71094C4.64844 8.71875 4.67188 8.72266 4.69531 8.72266C4.73438 8.72266 4.76953 8.71875 4.80078 8.71094C4.83984 8.69531 4.87891 8.6875 4.91797 8.6875C4.93359 8.6875 4.95312 8.69141 4.97656 8.69922C5.00781 8.70703 5.02344 8.73047 5.02344 8.76953C5.07031 8.75391 5.11328 8.73438 5.15234 8.71094C5.19141 8.6875 5.23438 8.66406 5.28125 8.64062C5.41406 8.75781 5.57031 8.84766 5.75 8.91016C5.92969 8.96484 6.11328 9.01953 6.30078 9.07422C6.48828 9.12109 6.67188 9.17578 6.85156 9.23828C7.03125 9.29297 7.19141 9.375 7.33203 9.48438C7.37109 9.5625 7.39062 9.64453 7.39062 9.73047C7.39062 9.86328 7.33594 9.98047 7.22656 10.082C7.11719 10.1758 7 10.2422 6.875 10.2812C6.69531 10.1562 6.49219 10.0664 6.26562 10.0117C6.04688 9.95703 5.83984 9.87891 5.64453 9.77734C5.48828 9.83984 5.31641 9.875 5.12891 9.88281C4.94922 9.88281 4.77344 9.89062 4.60156 9.90625C4.5625 9.9375 4.54688 9.99219 4.55469 10.0703C4.57031 10.1484 4.55859 10.207 4.51953 10.2461C4.62109 10.5508 4.75391 10.8477 4.91797 11.1367C5.08203 11.418 5.23047 11.707 5.36328 12.0039C5.37891 12.0508 5.40625 12.0859 5.44531 12.1094C5.48438 12.125 5.52344 12.1445 5.5625 12.168V12.2031C5.5625 12.25 5.57422 12.2852 5.59766 12.3086C5.62109 12.3242 5.625 12.3633 5.60938 12.4258C5.70312 12.4414 5.76953 12.4922 5.80859 12.5781C5.85547 12.6641 5.90234 12.7383 5.94922 12.8008C5.98047 12.8398 6.01172 12.875 6.04297 12.9062C6.08203 12.9375 6.11719 12.9727 6.14844 13.0117C6.28125 13.1602 6.42578 13.3164 6.58203 13.4805C6.73828 13.6445 6.90234 13.7695 7.07422 13.8555C7.09766 13.8711 7.11719 13.8789 7.13281 13.8789C7.15625 13.8789 7.17969 13.8828 7.20312 13.8906C7.28906 13.9375 7.38281 13.9805 7.48438 14.0195C7.58594 14.0664 7.69141 14.0898 7.80078 14.0898C7.85547 14.0898 7.91016 14.0781 7.96484 14.0547C8.02734 14.0312 8.06641 13.9922 8.08203 13.9375C8.12109 13.8672 8.14844 13.7852 8.16406 13.6914C8.1875 13.6055 8.20703 13.5234 8.22266 13.4453C8.28516 13.2188 8.34375 12.9922 8.39844 12.7656C8.46094 12.5391 8.51172 12.3125 8.55078 12.0859C8.53516 11.9844 8.52344 11.8828 8.51562 11.7812C8.50781 11.6797 8.50391 11.5781 8.50391 11.4766C8.50391 11.2969 8.50781 11.1172 8.51562 10.9375C8.53125 10.7578 8.53906 10.5781 8.53906 10.3984C8.53906 10.2344 8.52734 10.0742 8.50391 9.91797C8.48828 9.75391 8.44922 9.59375 8.38672 9.4375C8.40234 9.40625 8.42188 9.38281 8.44531 9.36719C8.46875 9.35156 8.48047 9.32422 8.48047 9.28516C8.48047 9.23828 8.46484 9.17578 8.43359 9.09766C8.41016 9.01172 8.37891 8.95703 8.33984 8.93359C8.39453 8.85547 8.42188 8.75781 8.42188 8.64062C8.42188 8.50781 8.40234 8.375 8.36328 8.24219C8.32422 8.10938 8.30469 7.97656 8.30469 7.84375C8.30469 7.75781 8.31641 7.67188 8.33984 7.58594C8.33984 7.53125 8.3125 7.50391 8.25781 7.50391C8.20312 7.50391 8.17188 7.47656 8.16406 7.42188C8.16406 7.40625 8.16406 7.39062 8.16406 7.375C8.17188 7.35938 8.17578 7.34375 8.17578 7.32812C8.17578 7.22656 8.16016 7.13281 8.12891 7.04688C8.10547 6.95312 8.08984 6.85547 8.08203 6.75391C8.01172 6.67578 7.96094 6.57812 7.92969 6.46094C7.89844 6.34375 7.86719 6.22656 7.83594 6.10938C7.80469 5.98438 7.76953 5.86719 7.73047 5.75781C7.69141 5.64844 7.62891 5.55859 7.54297 5.48828C7.54297 5.38672 7.52734 5.28125 7.49609 5.17188C7.47266 5.0625 7.40625 4.98438 7.29688 4.9375C7.25 4.75781 7.1875 4.58984 7.10938 4.43359C7.03125 4.27734 6.92578 4.13672 6.79297 4.01172C6.79297 3.82422 6.75391 3.67969 6.67578 3.57812C6.60547 3.47656 6.51562 3.35938 6.40625 3.22656C6.22656 3.24219 6.04688 3.27734 5.86719 3.33203C5.6875 3.38672 5.50781 3.41406 5.32812 3.41406C5.28125 3.41406 5.23438 3.41406 5.1875 3.41406C5.14844 3.40625 5.10547 3.39844 5.05859 3.39062C5.01953 3.41406 4.99609 3.45312 4.98828 3.50781C4.98047 3.55469 4.97656 3.59766 4.97656 3.63672C4.83594 3.65234 4.69922 3.67969 4.56641 3.71875C4.43359 3.75 4.29688 3.78516 4.15625 3.82422C4.02344 3.85547 3.89062 3.88281 3.75781 3.90625C3.625 3.92969 3.48828 3.9375 3.34766 3.92969C3.29297 4.03906 3.21484 4.11328 3.11328 4.15234C3.01172 4.18359 2.90234 4.20703 2.78516 4.22266C2.67578 4.23828 2.56641 4.25781 2.45703 4.28125C2.34766 4.30469 2.26172 4.35547 2.19922 4.43359C2.16797 4.40234 2.12891 4.38672 2.08203 4.38672C2.01953 4.38672 1.96094 4.40234 1.90625 4.43359C1.84375 4.46484 1.77734 4.48047 1.70703 4.48047C1.65234 4.48047 1.60938 4.46484 1.57812 4.43359C1.52344 4.47266 1.46484 4.50391 1.40234 4.52734C1.33203 4.54297 1.27734 4.58203 1.23828 4.64453C1.10547 4.62109 0.988281 4.57031 0.886719 4.49219C0.785156 4.41406 0.703125 4.32031 0.640625 4.21094C0.570312 4.10156 0.519531 3.98438 0.488281 3.85938C0.457031 3.72656 0.441406 3.59766 0.441406 3.47266C0.488281 3.38672 0.5625 3.32812 0.664062 3.29688C0.765625 3.26562 0.847656 3.21094 0.910156 3.13281C0.964844 3.15625 1.01953 3.17969 1.07422 3.20312C1.12109 3.21875 1.17578 3.22656 1.23828 3.22656C1.31641 3.22656 1.38281 3.21094 1.4375 3.17969C1.49219 3.14844 1.55078 3.13281 1.61328 3.13281C1.65234 3.13281 1.69531 3.14453 1.74219 3.16797C1.79688 3.12109 1.86328 3.09375 1.94141 3.08594C2.01953 3.07031 2.09375 3.05859 2.16406 3.05078C2.24219 3.03516 2.3125 3.01562 2.375 2.99219C2.4375 2.96875 2.48047 2.91797 2.50391 2.83984C2.57422 2.86328 2.64844 2.875 2.72656 2.875C2.82031 2.875 2.91406 2.86328 3.00781 2.83984C3.10156 2.80859 3.1875 2.77734 3.26562 2.74609C3.34375 2.71484 3.41406 2.6875 3.47656 2.66406C3.53906 2.63281 3.58203 2.61719 3.60547 2.61719C3.64453 2.61719 3.68359 2.62891 3.72266 2.65234C3.76172 2.66797 3.80078 2.67578 3.83984 2.67578C3.91797 2.67578 3.99219 2.65234 4.0625 2.60547C4.14062 2.55859 4.21094 2.51172 4.27344 2.46484C4.33594 2.49609 4.39453 2.51172 4.44922 2.51172C4.55859 2.51172 4.66797 2.48047 4.77734 2.41797C4.89453 2.35547 5.01953 2.32422 5.15234 2.32422C5.20703 2.32422 5.25 2.32812 5.28125 2.33594C5.46094 2.25 5.67578 2.17188 5.92578 2.10156C6.18359 2.03125 6.41406 1.99609 6.61719 1.99609C6.72656 1.90234 6.85547 1.83594 7.00391 1.79688C7.15234 1.75781 7.30469 1.72656 7.46094 1.70312C7.61719 1.67969 7.76953 1.64844 7.91797 1.60938C8.07422 1.57031 8.21484 1.50391 8.33984 1.41016C8.37891 1.42578 8.42578 1.4375 8.48047 1.44531C8.53516 1.44531 8.57422 1.46094 8.59766 1.49219C8.63672 1.47656 8.66406 1.44922 8.67969 1.41016C8.69531 1.37109 8.70703 1.33203 8.71484 1.29297C8.72266 1.28516 8.73828 1.28125 8.76172 1.28125C8.80078 1.28125 8.81641 1.29688 8.80859 1.32812C8.80078 1.35938 8.81641 1.375 8.85547 1.375C8.87891 1.375 8.91797 1.36328 8.97266 1.33984C9.03516 1.30859 9.10938 1.27734 9.19531 1.24609C9.28125 1.21484 9.375 1.1875 9.47656 1.16406C9.57812 1.13281 9.67578 1.11719 9.76953 1.11719H9.81641L9.875 1.10547C9.91406 1.08984 9.95703 1.07812 10.0039 1.07031C10.0508 1.05469 10.0938 1.03906 10.1328 1.02344C10.1797 1.00781 10.2109 1 10.2266 1C10.3984 0.945312 10.5742 0.898437 10.7539 0.859375C10.9414 0.820313 11.125 0.800781 11.3047 0.800781C11.4766 0.800781 11.6367 0.832031 11.7852 0.894531C11.9336 0.949219 12.0586 1.05078 12.1602 1.19922ZM21.7227 1.19922C21.6133 1.30859 21.5039 1.41797 21.3945 1.52734C21.2852 1.62891 21.1992 1.75781 21.1367 1.91406C21.043 1.92969 20.9453 1.94922 20.8438 1.97266C20.7422 1.99609 20.6445 2.00781 20.5508 2.00781C20.4883 2.00781 20.4258 2 20.3633 1.98438C20.3008 1.96094 20.2383 1.94922 20.1758 1.94922C20.1211 1.94922 20.0938 1.97656 20.0938 2.03125C20.0938 2.08594 20.0781 2.12891 20.0469 2.16016C19.9844 2.13672 19.918 2.12109 19.8477 2.11328C19.7773 2.10547 19.707 2.10156 19.6367 2.10156C19.4727 2.10156 19.3086 2.12891 19.1445 2.18359C18.9883 2.23047 18.832 2.28906 18.6758 2.35938C18.5195 2.42188 18.3633 2.48828 18.207 2.55859C18.0508 2.62891 17.8906 2.68359 17.7266 2.72266C17.7344 2.73047 17.7383 2.75 17.7383 2.78125C17.7383 2.83594 17.7227 2.88281 17.6914 2.92188C17.6602 2.95312 17.6445 2.99609 17.6445 3.05078V3.08594C17.7383 3.28906 17.832 3.48438 17.9258 3.67188C18.0195 3.85938 18.1094 4.05469 18.1953 4.25781C18.2422 4.35938 18.2812 4.45703 18.3125 4.55078C18.3438 4.64453 18.3789 4.74609 18.418 4.85547C18.4336 4.91797 18.4609 4.96094 18.5 4.98438C18.5391 5 18.5781 5.02734 18.6172 5.06641C18.6016 5.11328 18.5938 5.15625 18.5938 5.19531C18.5938 5.34375 18.6289 5.48828 18.6992 5.62891C18.7695 5.76172 18.8047 5.89844 18.8047 6.03906C18.8047 6.07812 18.7969 6.12891 18.7812 6.19141C18.875 6.32422 18.9414 6.47656 18.9805 6.64844C19.0195 6.82031 19.0547 6.99609 19.0859 7.17578C19.1172 7.34766 19.1484 7.51953 19.1797 7.69141C19.2188 7.85547 19.2852 8.00391 19.3789 8.13672C19.3242 8.23047 19.2891 8.33203 19.2734 8.44141C19.2578 8.54297 19.25 8.64844 19.25 8.75781C19.25 9.00781 19.2734 9.26172 19.3203 9.51953C19.375 9.76953 19.4023 10.0195 19.4023 10.2695C19.4023 10.4414 19.3828 10.582 19.3438 10.6914C19.3594 10.8086 19.3984 10.8945 19.4609 10.9492C19.4297 11.0039 19.418 11.0703 19.4258 11.1484C19.4336 11.2188 19.418 11.2812 19.3789 11.3359C19.418 11.4922 19.4375 11.6367 19.4375 11.7695C19.4375 11.9648 19.4102 12.1602 19.3555 12.3555C19.3086 12.543 19.2852 12.7383 19.2852 12.9414C19.2852 12.9961 19.2891 13.0469 19.2969 13.0938C19.3047 13.1484 19.3203 13.207 19.3438 13.2695C19.3281 13.3164 19.2969 13.3438 19.25 13.3516C19.2109 13.3672 19.1836 13.3945 19.168 13.4336V13.4688C19.168 13.5859 19.1523 13.6875 19.1211 13.7734C19.0977 13.8672 19.0664 13.9531 19.0273 14.0312L18.9219 14.2773C18.8906 14.3633 18.8633 14.457 18.8398 14.5586C18.6367 14.668 18.4414 14.7734 18.2539 14.875C18.0742 14.9766 17.8984 15.1133 17.7266 15.2852C17.6953 15.293 17.6484 15.2969 17.5859 15.2969C17.5312 15.2969 17.4766 15.293 17.4219 15.2852C17.3672 15.2852 17.3086 15.2852 17.2461 15.2852C17.1602 15.2852 17.0703 15.2969 16.9766 15.3203C16.8516 15.2031 16.6992 15.1172 16.5195 15.0625C16.3398 15.0156 16.1719 14.9492 16.0156 14.8633C15.9609 14.793 15.8984 14.7305 15.8281 14.6758L15.6172 14.5117C15.5469 14.457 15.4805 14.4023 15.418 14.3477C15.3555 14.293 15.3008 14.2227 15.2539 14.1367H15.0898C15.0898 14.1289 15.0898 14.1211 15.0898 14.1133C15.0977 14.1055 15.1016 14.0977 15.1016 14.0898C15.1016 14.0508 15.082 14.0273 15.043 14.0195C15.0039 14.0117 14.9922 13.9844 15.0078 13.9375C14.9141 13.8672 14.8359 13.7852 14.7734 13.6914C14.7109 13.5977 14.6484 13.5 14.5859 13.3984C14.5234 13.3047 14.4609 13.2109 14.3984 13.1172C14.3359 13.0312 14.2578 12.9531 14.1641 12.8828V12.8594C14.1641 12.8203 14.1523 12.7969 14.1289 12.7891C14.1055 12.7734 14.1016 12.7344 14.1172 12.6719C13.9922 12.5078 13.8867 12.3359 13.8008 12.1562C13.7148 11.9766 13.6328 11.793 13.5547 11.6055C13.4844 11.4102 13.4102 11.2188 13.332 11.0312C13.2617 10.8438 13.1758 10.6641 13.0742 10.4922C13.0586 10.4141 13.0508 10.3359 13.0508 10.2578V10.0234C13.0508 9.79688 13.0703 9.58203 13.1094 9.37891C13.1484 9.16797 13.2227 8.96484 13.332 8.76953C13.3945 8.75391 13.4648 8.75 13.543 8.75781C13.6289 8.75781 13.707 8.75781 13.7773 8.75781C13.8477 8.75781 13.9141 8.75391 13.9766 8.74609C14.0469 8.73047 14.1094 8.69531 14.1641 8.64062C14.1562 8.67188 14.1641 8.69531 14.1875 8.71094C14.2109 8.71875 14.2344 8.72266 14.2578 8.72266C14.2969 8.72266 14.332 8.71875 14.3633 8.71094C14.4023 8.69531 14.4414 8.6875 14.4805 8.6875C14.4961 8.6875 14.5156 8.69141 14.5391 8.69922C14.5703 8.70703 14.5859 8.73047 14.5859 8.76953C14.6328 8.75391 14.6758 8.73438 14.7148 8.71094C14.7539 8.6875 14.7969 8.66406 14.8438 8.64062C14.9766 8.75781 15.1328 8.84766 15.3125 8.91016C15.4922 8.96484 15.6758 9.01953 15.8633 9.07422C16.0508 9.12109 16.2344 9.17578 16.4141 9.23828C16.5938 9.29297 16.7539 9.375 16.8945 9.48438C16.9336 9.5625 16.9531 9.64453 16.9531 9.73047C16.9531 9.86328 16.8984 9.98047 16.7891 10.082C16.6797 10.1758 16.5625 10.2422 16.4375 10.2812C16.2578 10.1562 16.0547 10.0664 15.8281 10.0117C15.6094 9.95703 15.4023 9.87891 15.207 9.77734C15.0508 9.83984 14.8789 9.875 14.6914 9.88281C14.5117 9.88281 14.3359 9.89062 14.1641 9.90625C14.125 9.9375 14.1094 9.99219 14.1172 10.0703C14.1328 10.1484 14.1211 10.207 14.082 10.2461C14.1836 10.5508 14.3164 10.8477 14.4805 11.1367C14.6445 11.418 14.793 11.707 14.9258 12.0039C14.9414 12.0508 14.9688 12.0859 15.0078 12.1094C15.0469 12.125 15.0859 12.1445 15.125 12.168V12.2031C15.125 12.25 15.1367 12.2852 15.1602 12.3086C15.1836 12.3242 15.1875 12.3633 15.1719 12.4258C15.2656 12.4414 15.332 12.4922 15.3711 12.5781C15.418 12.6641 15.4648 12.7383 15.5117 12.8008C15.543 12.8398 15.5742 12.875 15.6055 12.9062C15.6445 12.9375 15.6797 12.9727 15.7109 13.0117C15.8438 13.1602 15.9883 13.3164 16.1445 13.4805C16.3008 13.6445 16.4648 13.7695 16.6367 13.8555C16.6602 13.8711 16.6797 13.8789 16.6953 13.8789C16.7188 13.8789 16.7422 13.8828 16.7656 13.8906C16.8516 13.9375 16.9453 13.9805 17.0469 14.0195C17.1484 14.0664 17.2539 14.0898 17.3633 14.0898C17.418 14.0898 17.4727 14.0781 17.5273 14.0547C17.5898 14.0312 17.6289 13.9922 17.6445 13.9375C17.6836 13.8672 17.7109 13.7852 17.7266 13.6914C17.75 13.6055 17.7695 13.5234 17.7852 13.4453C17.8477 13.2188 17.9062 12.9922 17.9609 12.7656C18.0234 12.5391 18.0742 12.3125 18.1133 12.0859C18.0977 11.9844 18.0859 11.8828 18.0781 11.7812C18.0703 11.6797 18.0664 11.5781 18.0664 11.4766C18.0664 11.2969 18.0703 11.1172 18.0781 10.9375C18.0938 10.7578 18.1016 10.5781 18.1016 10.3984C18.1016 10.2344 18.0898 10.0742 18.0664 9.91797C18.0508 9.75391 18.0117 9.59375 17.9492 9.4375C17.9648 9.40625 17.9844 9.38281 18.0078 9.36719C18.0312 9.35156 18.043 9.32422 18.043 9.28516C18.043 9.23828 18.0273 9.17578 17.9961 9.09766C17.9727 9.01172 17.9414 8.95703 17.9023 8.93359C17.957 8.85547 17.9844 8.75781 17.9844 8.64062C17.9844 8.50781 17.9648 8.375 17.9258 8.24219C17.8867 8.10938 17.8672 7.97656 17.8672 7.84375C17.8672 7.75781 17.8789 7.67188 17.9023 7.58594C17.9023 7.53125 17.875 7.50391 17.8203 7.50391C17.7656 7.50391 17.7344 7.47656 17.7266 7.42188C17.7266 7.40625 17.7266 7.39062 17.7266 7.375C17.7344 7.35938 17.7383 7.34375 17.7383 7.32812C17.7383 7.22656 17.7227 7.13281 17.6914 7.04688C17.668 6.95312 17.6523 6.85547 17.6445 6.75391C17.5742 6.67578 17.5234 6.57812 17.4922 6.46094C17.4609 6.34375 17.4297 6.22656 17.3984 6.10938C17.3672 5.98438 17.332 5.86719 17.293 5.75781C17.2539 5.64844 17.1914 5.55859 17.1055 5.48828C17.1055 5.38672 17.0898 5.28125 17.0586 5.17188C17.0352 5.0625 16.9688 4.98438 16.8594 4.9375C16.8125 4.75781 16.75 4.58984 16.6719 4.43359C16.5938 4.27734 16.4883 4.13672 16.3555 4.01172C16.3555 3.82422 16.3164 3.67969 16.2383 3.57812C16.168 3.47656 16.0781 3.35938 15.9688 3.22656C15.7891 3.24219 15.6094 3.27734 15.4297 3.33203C15.25 3.38672 15.0703 3.41406 14.8906 3.41406C14.8438 3.41406 14.7969 3.41406 14.75 3.41406C14.7109 3.40625 14.668 3.39844 14.6211 3.39062C14.582 3.41406 14.5586 3.45312 14.5508 3.50781C14.543 3.55469 14.5391 3.59766 14.5391 3.63672C14.3984 3.65234 14.2617 3.67969 14.1289 3.71875C13.9961 3.75 13.8594 3.78516 13.7188 3.82422C13.5859 3.85547 13.4531 3.88281 13.3203 3.90625C13.1875 3.92969 13.0508 3.9375 12.9102 3.92969C12.8555 4.03906 12.7773 4.11328 12.6758 4.15234C12.5742 4.18359 12.4648 4.20703 12.3477 4.22266C12.2383 4.23828 12.1289 4.25781 12.0195 4.28125C11.9102 4.30469 11.8242 4.35547 11.7617 4.43359C11.7305 4.40234 11.6914 4.38672 11.6445 4.38672C11.582 4.38672 11.5234 4.40234 11.4688 4.43359C11.4062 4.46484 11.3398 4.48047 11.2695 4.48047C11.2148 4.48047 11.1719 4.46484 11.1406 4.43359C11.0859 4.47266 11.0273 4.50391 10.9648 4.52734C10.8945 4.54297 10.8398 4.58203 10.8008 4.64453C10.668 4.62109 10.5508 4.57031 10.4492 4.49219C10.3477 4.41406 10.2656 4.32031 10.2031 4.21094C10.1328 4.10156 10.082 3.98438 10.0508 3.85938C10.0195 3.72656 10.0039 3.59766 10.0039 3.47266C10.0508 3.38672 10.125 3.32812 10.2266 3.29688C10.3281 3.26562 10.4102 3.21094 10.4727 3.13281C10.5273 3.15625 10.582 3.17969 10.6367 3.20312C10.6836 3.21875 10.7383 3.22656 10.8008 3.22656C10.8789 3.22656 10.9453 3.21094 11 3.17969C11.0547 3.14844 11.1133 3.13281 11.1758 3.13281C11.2148 3.13281 11.2578 3.14453 11.3047 3.16797C11.3594 3.12109 11.4258 3.09375 11.5039 3.08594C11.582 3.07031 11.6562 3.05859 11.7266 3.05078C11.8047 3.03516 11.875 3.01562 11.9375 2.99219C12 2.96875 12.043 2.91797 12.0664 2.83984C12.1367 2.86328 12.2109 2.875 12.2891 2.875C12.3828 2.875 12.4766 2.86328 12.5703 2.83984C12.6641 2.80859 12.75 2.77734 12.8281 2.74609C12.9062 2.71484 12.9766 2.6875 13.0391 2.66406C13.1016 2.63281 13.1445 2.61719 13.168 2.61719C13.207 2.61719 13.2461 2.62891 13.2852 2.65234C13.3242 2.66797 13.3633 2.67578 13.4023 2.67578C13.4805 2.67578 13.5547 2.65234 13.625 2.60547C13.7031 2.55859 13.7734 2.51172 13.8359 2.46484C13.8984 2.49609 13.957 2.51172 14.0117 2.51172C14.1211 2.51172 14.2305 2.48047 14.3398 2.41797C14.457 2.35547 14.582 2.32422 14.7148 2.32422C14.7695 2.32422 14.8125 2.32812 14.8438 2.33594C15.0234 2.25 15.2383 2.17188 15.4883 2.10156C15.7461 2.03125 15.9766 1.99609 16.1797 1.99609C16.2891 1.90234 16.418 1.83594 16.5664 1.79688C16.7148 1.75781 16.8672 1.72656 17.0234 1.70312C17.1797 1.67969 17.332 1.64844 17.4805 1.60938C17.6367 1.57031 17.7773 1.50391 17.9023 1.41016C17.9414 1.42578 17.9883 1.4375 18.043 1.44531C18.0977 1.44531 18.1367 1.46094 18.1602 1.49219C18.1992 1.47656 18.2266 1.44922 18.2422 1.41016C18.2578 1.37109 18.2695 1.33203 18.2773 1.29297C18.2852 1.28516 18.3008 1.28125 18.3242 1.28125C18.3633 1.28125 18.3789 1.29688 18.3711 1.32812C18.3633 1.35938 18.3789 1.375 18.418 1.375C18.4414 1.375 18.4805 1.36328 18.5352 1.33984C18.5977 1.30859 18.6719 1.27734 18.7578 1.24609C18.8438 1.21484 18.9375 1.1875 19.0391 1.16406C19.1406 1.13281 19.2383 1.11719 19.332 1.11719H19.3789L19.4375 1.10547C19.4766 1.08984 19.5195 1.07812 19.5664 1.07031C19.6133 1.05469 19.6562 1.03906 19.6953 1.02344C19.7422 1.00781 19.7734 1 19.7891 1C19.9609 0.945312 20.1367 0.898437 20.3164 0.859375C20.5039 0.820313 20.6875 0.800781 20.8672 0.800781C21.0391 0.800781 21.1992 0.832031 21.3477 0.894531C21.4961 0.949219 21.6211 1.05078 21.7227 1.19922ZM33.3711 12.332C33.3711 12.3945 33.3477 12.4375 33.3008 12.4609C33.2617 12.4844 33.2539 12.5391 33.2773 12.625C33.2148 12.6328 33.1602 12.6641 33.1133 12.7188C33.0664 12.7734 33.0117 12.8008 32.9492 12.8008C32.9102 12.8008 32.8789 12.7812 32.8555 12.7422C32.8398 12.7969 32.8086 12.8359 32.7617 12.8594C32.7227 12.8828 32.6797 12.9023 32.6328 12.918C32.5859 12.9336 32.5391 12.9531 32.4922 12.9766C32.4453 13 32.4141 13.0352 32.3984 13.082H32.3398C32.2461 13.082 32.1719 13.1211 32.1172 13.1992C32.0703 13.2773 32.0117 13.3164 31.9414 13.3164C31.918 13.3164 31.9023 13.3125 31.8945 13.3047C31.8555 13.3125 31.8398 13.3359 31.8477 13.375C31.8555 13.4219 31.8438 13.4531 31.8125 13.4688H31.7539C31.5508 13.4688 31.3438 13.5117 31.1328 13.5977C30.9219 13.6836 30.707 13.7812 30.4883 13.8906C30.2773 14 30.0586 14.1016 29.832 14.1953C29.6133 14.2969 29.3906 14.3633 29.1641 14.3945C29.1172 14.4414 29.0586 14.4766 28.9883 14.5C28.9258 14.5312 28.8555 14.5547 28.7773 14.5703C28.6992 14.5859 28.6211 14.6016 28.543 14.6172C28.4727 14.6406 28.4102 14.6758 28.3555 14.7227C28.1602 14.7383 27.9648 14.7734 27.7695 14.8281C27.5742 14.8828 27.3789 14.9336 27.1836 14.9805C26.9961 15.0352 26.8008 15.0781 26.5977 15.1094C26.4023 15.1484 26.2031 15.1602 26 15.1445C25.9375 15.1914 25.8672 15.2266 25.7891 15.25C25.7188 15.2812 25.6523 15.3203 25.5898 15.3672C25.2695 15.3203 24.9492 15.2852 24.6289 15.2617C24.3164 15.2383 24.0078 15.1836 23.7031 15.0977C23.7031 15.0742 23.6953 15.0586 23.6797 15.0508C23.6641 15.043 23.6445 15.0352 23.6211 15.0273C23.6055 15.0273 23.5898 15.0195 23.5742 15.0039C23.5586 14.9961 23.5586 14.9766 23.5742 14.9453C23.5039 14.9688 23.4414 14.9805 23.3867 14.9805C23.3086 14.9805 23.2305 14.9609 23.1523 14.9219C23.082 14.8828 23.0039 14.8398 22.918 14.793C22.8398 14.7461 22.7578 14.6992 22.6719 14.6523C22.5859 14.6133 22.4922 14.5938 22.3906 14.5938C22.3281 14.5312 22.2695 14.4688 22.2148 14.4062C22.168 14.3438 22.1328 14.2656 22.1094 14.1719C22.0781 14.1641 22.043 14.1641 22.0039 14.1719C21.9727 14.1797 21.9453 14.1836 21.9219 14.1836C21.875 14.1836 21.8516 14.168 21.8516 14.1367C21.6875 14.0195 21.5703 13.8945 21.5 13.7617C21.4297 13.6289 21.3516 13.4766 21.2656 13.3047C21.2422 13.25 21.2109 13.2031 21.1719 13.1641C21.1406 13.1328 21.1172 13.0938 21.1016 13.0469C21.0703 12.9688 21.0508 12.8867 21.043 12.8008C21.0352 12.7148 21.0273 12.6328 21.0195 12.5547C21.0195 12.4688 21.0078 12.3867 20.9844 12.3086C20.9688 12.2227 20.9336 12.1445 20.8789 12.0742C20.8945 11.7773 20.9258 11.4805 20.9727 11.1836C21.0273 10.8867 21.0938 10.5898 21.1719 10.293C21.2031 10.1602 21.2383 10.0312 21.2773 9.90625C21.3164 9.78125 21.3516 9.65234 21.3828 9.51953C21.3906 9.47266 21.4023 9.44141 21.418 9.42578C21.4414 9.40234 21.4609 9.38672 21.4766 9.37891L21.5234 9.34375C21.5391 9.32812 21.5508 9.30469 21.5586 9.27344L21.6523 8.875C21.7148 8.61719 21.7969 8.36719 21.8984 8.125C22 7.88281 22.1367 7.66016 22.3086 7.45703C22.3242 7.26172 22.3672 7.07812 22.4375 6.90625C22.5156 6.72656 22.6016 6.55469 22.6953 6.39062C22.7891 6.21875 22.8828 6.05078 22.9766 5.88672C23.0703 5.72266 23.1445 5.54688 23.1992 5.35938L23.1875 5.33594C23.1875 5.30469 23.2031 5.28906 23.2344 5.28906C23.2734 5.28125 23.3008 5.27734 23.3164 5.27734C23.3242 5.15234 23.3516 5.04688 23.3984 4.96094C23.4531 4.86719 23.5078 4.78125 23.5625 4.70312C23.625 4.625 23.6797 4.54297 23.7266 4.45703C23.7812 4.36328 23.8125 4.25391 23.8203 4.12891C23.9688 4.04297 24.0938 3.9375 24.1953 3.8125C24.3047 3.67969 24.4062 3.54688 24.5 3.41406C24.6016 3.27344 24.707 3.14062 24.8164 3.01562C24.9258 2.88281 25.0586 2.77734 25.2148 2.69922C25.2539 2.65234 25.2656 2.58594 25.25 2.5C25.4922 2.32031 25.7422 2.16016 26 2.01953C26.2578 1.87891 26.5 1.71484 26.7266 1.52734H27.1484C27.25 1.44922 27.3633 1.41016 27.4883 1.41016C27.582 1.41016 27.6719 1.42969 27.7578 1.46875C27.8516 1.50781 27.9375 1.55469 28.0156 1.60938C28.1016 1.65625 28.1875 1.70703 28.2734 1.76172C28.3594 1.80859 28.4453 1.84375 28.5312 1.86719C28.6172 1.98438 28.6758 2.12109 28.707 2.27734C28.7461 2.42578 28.7852 2.56641 28.8242 2.69922C28.7539 2.91016 28.7109 3.12891 28.6953 3.35547C28.6797 3.57422 28.6523 3.79297 28.6133 4.01172C28.5586 4.07422 28.5117 4.14453 28.4727 4.22266C28.4336 4.29297 28.3906 4.36719 28.3438 4.44531C28.3047 4.51562 28.2617 4.58594 28.2148 4.65625C28.168 4.71875 28.1055 4.76953 28.0273 4.80859C27.9648 5.03516 27.8672 5.21484 27.7344 5.34766C27.6016 5.48047 27.4727 5.63672 27.3477 5.81641C27.2305 5.89453 27.1055 5.93359 26.9727 5.93359C26.8633 5.93359 26.7656 5.91016 26.6797 5.86328C26.5938 5.80859 26.5156 5.74219 26.4453 5.66406C26.375 5.57812 26.3164 5.48828 26.2695 5.39453C26.2305 5.29297 26.1992 5.19531 26.1758 5.10156C26.2305 4.9375 26.3164 4.79688 26.4336 4.67969C26.5586 4.5625 26.6836 4.44531 26.8086 4.32812C26.9336 4.21094 27.043 4.08594 27.1367 3.95312C27.2305 3.82031 27.2773 3.66016 27.2773 3.47266C27.2773 3.45703 27.2734 3.44141 27.2656 3.42578C27.2656 3.41016 27.2656 3.39453 27.2656 3.37891C27.2656 3.34766 27.2773 3.32031 27.3008 3.29688C27.3242 3.27344 27.3477 3.25391 27.3711 3.23828L27.4414 3.17969C27.4648 3.15625 27.4766 3.12891 27.4766 3.09766C27.4766 3.06641 27.4609 3.03516 27.4297 3.00391C27.1328 3.02734 26.9062 3.07812 26.75 3.15625C26.6016 3.23438 26.4844 3.32031 26.3984 3.41406C26.3125 3.50781 26.2344 3.60156 26.1641 3.69531C26.1016 3.78125 26.0078 3.84375 25.8828 3.88281C25.8594 3.94531 25.8242 4 25.7773 4.04688C25.7383 4.08594 25.6953 4.12891 25.6484 4.17578C25.6016 4.21484 25.5586 4.26172 25.5195 4.31641C25.4883 4.37109 25.4688 4.4375 25.4609 4.51562H25.25C25.2188 4.58594 25.1719 4.65625 25.1094 4.72656C25.0547 4.78906 24.9961 4.85156 24.9336 4.91406C24.8789 4.97656 24.8281 5.04688 24.7812 5.125C24.7422 5.19531 24.7305 5.27344 24.7461 5.35938C24.6602 5.39062 24.5938 5.44141 24.5469 5.51172C24.5078 5.58203 24.4492 5.64062 24.3711 5.6875V5.75781C24.3711 5.82031 24.3594 5.87891 24.3359 5.93359C24.3125 5.98828 24.3086 6.04688 24.3242 6.10938C24.2305 6.19531 24.1602 6.30469 24.1133 6.4375C24.0742 6.5625 24.0312 6.67969 23.9844 6.78906C23.875 6.84375 23.8008 6.91797 23.7617 7.01172C23.7227 7.10547 23.7031 7.21484 23.7031 7.33984C23.5859 7.45703 23.4805 7.59375 23.3867 7.75C23.293 7.90625 23.207 8.06641 23.1289 8.23047C23.0586 8.39453 22.9922 8.5625 22.9297 8.73438C22.8672 8.90625 22.8008 9.06641 22.7305 9.21484V9.55469C22.6211 9.67969 22.543 9.82812 22.4961 10C22.457 10.1641 22.3945 10.3125 22.3086 10.4453C22.293 10.5312 22.2852 10.6172 22.2852 10.7031C22.293 10.7891 22.2969 10.875 22.2969 10.9609C22.2969 11.0547 22.2891 11.1523 22.2734 11.2539C22.2578 11.3555 22.2305 11.4492 22.1914 11.5352C22.2227 11.6523 22.2461 11.793 22.2617 11.957C22.2773 12.1133 22.3047 12.2734 22.3438 12.4375C22.3828 12.5938 22.4375 12.7383 22.5078 12.8711C22.5781 12.9961 22.6797 13.082 22.8125 13.1289C22.8438 13.3008 22.918 13.4297 23.0352 13.5156C23.1602 13.6094 23.3008 13.6836 23.457 13.7383C23.6133 13.793 23.7734 13.8398 23.9375 13.8789C24.1016 13.9258 24.2461 13.9844 24.3711 14.0547C24.418 14.0312 24.4727 14.0195 24.5352 14.0195C24.5977 14.0195 24.6523 14.0273 24.6992 14.043C24.7539 14.0586 24.8125 14.0742 24.875 14.0898C24.9844 14.0742 25.1172 14.0664 25.2734 14.0664C25.4375 14.0664 25.6016 14.0586 25.7656 14.043C25.9297 14.0352 26.082 14.0156 26.2227 13.9844C26.3633 13.9531 26.4766 13.8945 26.5625 13.8086C26.6172 13.8086 26.6523 13.8242 26.668 13.8555C26.6914 13.8867 26.7305 13.9023 26.7852 13.9023C26.8398 13.9023 26.9219 13.8867 27.0312 13.8555C27.1406 13.832 27.2539 13.8008 27.3711 13.7617C27.4883 13.7305 27.5977 13.6953 27.6992 13.6562C27.8086 13.6172 27.8867 13.582 27.9336 13.5508C27.957 13.5586 27.9805 13.5625 28.0039 13.5625H28.0859C28.1953 13.5625 28.2969 13.543 28.3906 13.5039C28.4844 13.4648 28.5859 13.4531 28.6953 13.4688C29.0547 13.2891 29.418 13.1328 29.7852 13C30.1602 12.875 30.5391 12.7617 30.9219 12.6602C30.9688 12.5898 31.0234 12.5391 31.0859 12.5078C31.1562 12.4766 31.2305 12.4531 31.3086 12.4375C31.3867 12.4141 31.4648 12.3984 31.543 12.3906C31.6211 12.375 31.6953 12.3555 31.7656 12.332C31.8125 12.3086 31.8516 12.2812 31.8828 12.25C31.9219 12.2109 31.9688 12.1797 32.0234 12.1562C32.0781 12.1328 32.1367 12.1172 32.1992 12.1094C32.2695 12.1016 32.3359 12.0938 32.3984 12.0859C32.4688 12.0703 32.5312 12.0508 32.5859 12.0273C32.6484 12.0039 32.6992 11.9648 32.7383 11.9102C32.8477 11.957 32.957 12.0078 33.0664 12.0625C33.1836 12.1172 33.2812 12.1953 33.3594 12.2969L33.3711 12.332ZM45.9922 12.5664C45.9922 12.6445 45.9883 12.7031 45.9805 12.7422C45.9414 12.7578 45.9102 12.7812 45.8867 12.8125C45.8633 12.8359 45.8242 12.8438 45.7695 12.8359C45.7539 12.9531 45.7148 13.0508 45.6523 13.1289C45.5898 13.207 45.5234 13.2773 45.4531 13.3398C45.3906 13.4102 45.3281 13.4805 45.2656 13.5508C45.2031 13.6289 45.1641 13.7266 45.1484 13.8438C45.0312 13.9062 44.9141 13.9883 44.7969 14.0898C44.6875 14.1992 44.5898 14.2734 44.5039 14.3125C44.4414 14.3438 44.375 14.3672 44.3047 14.3828C44.2344 14.4062 44.1641 14.4336 44.0938 14.4648C43.8672 14.5664 43.6328 14.6719 43.3906 14.7812C43.1562 14.8906 42.9102 14.9453 42.6523 14.9453H42.5703C42.5391 14.9766 42.5 14.9961 42.4531 15.0039C42.4062 15.0195 42.3594 15.0312 42.3125 15.0391C42.2656 15.0469 42.2188 15.0586 42.1719 15.0742C42.125 15.0898 42.0898 15.1133 42.0664 15.1445C41.9805 15.1133 41.8867 15.0977 41.7852 15.0977H41.7031C41.5703 15.1289 41.4453 15.1523 41.3281 15.168C41.2109 15.1836 41.0859 15.1914 40.9531 15.1914C40.7188 15.1914 40.4844 15.1758 40.25 15.1445C40.0156 15.1133 39.7812 15.0859 39.5469 15.0625C39.3984 14.9453 39.2773 14.7969 39.1836 14.6172C39.0898 14.4453 39.043 14.2617 39.043 14.0664C39.043 13.918 39.0742 13.7773 39.1367 13.6445C39.1992 13.5195 39.2812 13.4062 39.3828 13.3047H39.418C39.4883 13.3047 39.5586 13.2891 39.6289 13.2578C39.707 13.2266 39.7812 13.2109 39.8516 13.2109C39.9297 13.2109 39.9922 13.2422 40.0391 13.3047C40.0938 13.3672 40.1328 13.4414 40.1562 13.5273C40.1875 13.6133 40.207 13.6992 40.2148 13.7852C40.2227 13.8789 40.2266 13.9531 40.2266 14.0078C40.3125 14.0469 40.4023 14.0703 40.4961 14.0781C40.5977 14.0859 40.6992 14.0898 40.8008 14.0898C40.9023 14.0898 41.0156 14.082 41.1406 14.0664C41.2656 14.0586 41.3906 14.0391 41.5156 14.0078C41.6484 13.9844 41.7734 13.9531 41.8906 13.9141C42.0156 13.875 42.1211 13.8242 42.207 13.7617C42.6367 13.7227 43.0156 13.625 43.3438 13.4688C43.6719 13.3125 44.0195 13.1289 44.3867 12.918C44.4023 12.832 44.4336 12.7656 44.4805 12.7188C44.5352 12.6641 44.5625 12.5859 44.5625 12.4844C44.5625 12.4688 44.5586 12.4531 44.5508 12.4375C44.5508 12.4141 44.5508 12.3945 44.5508 12.3789C44.3945 12.1836 44.2305 12.0117 44.0586 11.8633C43.8945 11.7148 43.6797 11.6172 43.4141 11.5703C43.3828 11.5 43.332 11.4492 43.2617 11.418C43.1914 11.3789 43.1172 11.3438 43.0391 11.3125C42.9609 11.2812 42.8867 11.25 42.8164 11.2188C42.7461 11.1797 42.6953 11.1172 42.6641 11.0312C42.4531 10.9922 42.2344 10.9453 42.0078 10.8906C41.7891 10.8281 41.6016 10.7188 41.4453 10.5625C41.3203 10.5547 41.1992 10.5312 41.082 10.4922C40.9727 10.4453 40.8633 10.4023 40.7539 10.3633C40.6445 10.3164 40.5312 10.2773 40.4141 10.2461C40.2969 10.207 40.1758 10.1875 40.0508 10.1875C40.0195 10.1328 39.9766 10.0898 39.9219 10.0586C39.8672 10.0273 39.8047 10 39.7344 9.97656C39.6719 9.95312 39.6094 9.92969 39.5469 9.90625C39.4922 9.875 39.4492 9.83203 39.418 9.77734C39.3867 9.78516 39.3633 9.80078 39.3477 9.82422C39.332 9.84766 39.3047 9.85938 39.2656 9.85938H39.2188C39.2031 9.8125 39.1719 9.78125 39.125 9.76562C39.0781 9.74219 39.0508 9.69922 39.043 9.63672C38.9023 9.62891 38.7734 9.60156 38.6562 9.55469C38.5469 9.50781 38.4414 9.45703 38.3398 9.40234C38.2461 9.33984 38.1484 9.28125 38.0469 9.22656C37.9453 9.17188 37.832 9.12891 37.707 9.09766C37.6289 9.03516 37.5547 8.96875 37.4844 8.89844C37.4219 8.82031 37.3398 8.78125 37.2383 8.78125C37.2148 8.78125 37.1719 8.78906 37.1094 8.80469C37.0938 8.66406 37.0352 8.56641 36.9336 8.51172C36.832 8.44922 36.7227 8.39453 36.6055 8.34766C36.5273 8.14453 36.4219 7.96484 36.2891 7.80859C36.1562 7.65234 36.0117 7.50781 35.8555 7.375C35.8711 7.32812 35.8789 7.29297 35.8789 7.26953C35.8789 7.19141 35.8594 7.125 35.8203 7.07031C35.7812 7.00781 35.7383 6.95703 35.6914 6.91797C35.582 6.56641 35.5273 6.22266 35.5273 5.88672C35.5273 5.41797 35.6328 4.98438 35.8438 4.58594C36.0469 4.17969 36.3711 3.875 36.8164 3.67188C36.8242 3.60938 36.8438 3.55469 36.875 3.50781C36.9141 3.46094 36.9375 3.40625 36.9453 3.34375C37.0156 3.34375 37.0703 3.32812 37.1094 3.29688C37.1484 3.26562 37.1836 3.23438 37.2148 3.20312C37.2539 3.16406 37.293 3.12891 37.332 3.09766C37.3711 3.06641 37.4219 3.04688 37.4844 3.03906C37.7812 2.78125 38.0977 2.57422 38.4336 2.41797C38.7695 2.25391 39.1133 2.08594 39.4648 1.91406C39.5352 1.88281 39.5938 1.82422 39.6406 1.73828H39.7109C39.7891 1.73828 39.8477 1.72266 39.8867 1.69141C39.9336 1.65234 40 1.64062 40.0859 1.65625C40.1172 1.60938 40.1562 1.57812 40.2031 1.5625C40.2578 1.54688 40.3086 1.53516 40.3555 1.52734C40.4102 1.51172 40.4609 1.49219 40.5078 1.46875C40.5547 1.44531 40.5859 1.41016 40.6016 1.36328H40.6836C40.8164 1.36328 40.9453 1.34375 41.0703 1.30469C41.1953 1.25781 41.3203 1.20703 41.4453 1.15234H41.5273C41.6836 1.15234 41.8281 1.125 41.9609 1.07031C42.1016 1.00781 42.25 0.964844 42.4062 0.941406C42.4688 0.925781 42.5312 0.921875 42.5938 0.929688C42.6562 0.9375 42.7188 0.941406 42.7812 0.941406C42.8203 0.941406 42.8672 0.9375 42.9219 0.929688C42.9766 0.921875 43.0156 0.898437 43.0391 0.859375H43.0625C43.1094 0.859375 43.1367 0.875 43.1445 0.90625C43.1523 0.9375 43.1758 0.953125 43.2148 0.953125C43.2695 0.953125 43.3242 0.945312 43.3789 0.929688C43.4336 0.914063 43.4883 0.90625 43.543 0.90625C43.7773 0.90625 44.0078 0.929688 44.2344 0.976562C44.4688 1.02344 44.6992 1.06641 44.9258 1.10547C44.9414 1.19922 44.9805 1.26562 45.043 1.30469C45.1133 1.34375 45.1875 1.37891 45.2656 1.41016V1.45703C45.2656 1.51953 45.2812 1.57031 45.3125 1.60938C45.2812 1.71875 45.2266 1.80078 45.1484 1.85547C45.0703 1.91016 44.9844 1.95703 44.8906 1.99609C44.9297 2.02734 44.9531 2.07031 44.9609 2.125C44.9688 2.17969 44.9727 2.23047 44.9727 2.27734V2.41797L44.9141 2.40625C44.7891 2.40625 44.7266 2.46484 44.7266 2.58203C44.625 2.51953 44.5117 2.48047 44.3867 2.46484C44.2695 2.44922 44.1523 2.44141 44.0352 2.44141C43.8789 2.44141 43.7148 2.44922 43.543 2.46484C43.3711 2.47266 43.2031 2.46875 43.0391 2.45312C42.9766 2.53125 42.8984 2.58984 42.8047 2.62891C42.7109 2.66016 42.6172 2.67578 42.5234 2.67578C42.4219 2.67578 42.3242 2.65625 42.2305 2.61719C42.1367 2.57031 42.0703 2.50391 42.0312 2.41797C41.9922 2.40234 41.957 2.39453 41.9258 2.39453H41.8203C41.6953 2.39453 41.5703 2.41016 41.4453 2.44141C41.3281 2.46484 41.207 2.49609 41.082 2.53516C40.957 2.56641 40.832 2.60156 40.707 2.64062C40.5898 2.67188 40.4688 2.69141 40.3438 2.69922C40.2969 2.76172 40.2344 2.80469 40.1562 2.82812C40.0781 2.85156 40.0156 2.89453 39.9688 2.95703C39.8047 2.98828 39.6562 3.04297 39.5234 3.12109C39.3906 3.19141 39.2617 3.26953 39.1367 3.35547L38.7734 3.60156C38.6562 3.67969 38.5234 3.74609 38.375 3.80078C38.2656 3.91797 38.1641 4.01172 38.0703 4.08203C37.9766 4.15234 37.8555 4.21484 37.707 4.26953C37.6133 4.30078 37.5586 4.34766 37.543 4.41016C37.5352 4.47266 37.5039 4.53516 37.4492 4.59766C37.4023 4.65234 37.3438 4.69531 37.2734 4.72656C37.2109 4.75 37.1562 4.79297 37.1094 4.85547C37.0703 4.91016 37.0391 4.97656 37.0156 5.05469C37 5.125 36.9805 5.19531 36.957 5.26562C36.9336 5.33594 36.9062 5.40625 36.875 5.47656C36.8438 5.53906 36.7969 5.59375 36.7344 5.64062C36.7344 5.67188 36.7305 5.70312 36.7227 5.73438C36.7227 5.76562 36.7227 5.79297 36.7227 5.81641C36.7227 5.92578 36.7344 6.03906 36.7578 6.15625C36.7891 6.26562 36.8086 6.375 36.8164 6.48438C36.9727 6.75781 37.1562 7.00781 37.3672 7.23438C37.5781 7.45312 37.8047 7.65625 38.0469 7.84375C38.2891 8.03125 38.5391 8.20703 38.7969 8.37109C39.0625 8.53516 39.3242 8.69531 39.582 8.85156C39.6758 8.84375 39.7617 8.85547 39.8398 8.88672C39.918 8.91016 40 8.92578 40.0859 8.93359C40.1797 9.00391 40.2891 9.05859 40.4141 9.09766L40.7891 9.21484C40.9141 9.25391 41.0352 9.30078 41.1523 9.35547C41.2695 9.40234 41.3672 9.46875 41.4453 9.55469C41.4844 9.5625 41.5195 9.57422 41.5508 9.58984C41.582 9.59766 41.6172 9.60156 41.6562 9.60156C41.7031 9.60156 41.7305 9.58594 41.7383 9.55469C42.0898 9.6875 42.4336 9.83594 42.7695 10C43.1055 10.1562 43.4609 10.2773 43.8359 10.3633C43.9844 10.4883 44.1484 10.5977 44.3281 10.6914C44.5078 10.7852 44.6875 10.8828 44.8672 10.9844C45.0469 11.0781 45.2188 11.1836 45.3828 11.3008C45.5469 11.4102 45.6914 11.543 45.8164 11.6992C45.832 11.8477 45.8633 11.9922 45.9102 12.1328C45.9648 12.2656 45.9922 12.4102 45.9922 12.5664ZM54.043 6.21484C53.9961 6.28516 53.9688 6.36328 53.9609 6.44922C53.9531 6.53516 53.9492 6.61328 53.9492 6.68359C53.9492 6.77734 53.9492 6.87109 53.9492 6.96484C53.957 7.05078 53.9609 7.13672 53.9609 7.22266V7.39844C53.9453 7.45312 53.9219 7.50781 53.8906 7.5625C53.8594 7.61719 53.8359 7.67188 53.8203 7.72656C53.7109 8.01562 53.6562 8.30469 53.6562 8.59375V8.61719C53.6172 8.71094 53.5781 8.79688 53.5391 8.875C53.5078 8.95312 53.4766 9.03125 53.4453 9.10938C53.4141 9.17969 53.3906 9.25781 53.375 9.34375C53.3594 9.42188 53.3555 9.51562 53.3633 9.625C53.2539 9.89844 53.1094 10.1484 52.9297 10.375C52.75 10.5938 52.5742 10.8203 52.4023 11.0547C52.2383 11.1172 52.0859 11.1992 51.9453 11.3008C51.8125 11.4023 51.6836 11.5156 51.5586 11.6406C51.3164 11.7188 51.0781 11.8086 50.8438 11.9102C50.6094 12.0117 50.3984 12.1484 50.2109 12.3203C50.0625 12.3359 49.9141 12.3594 49.7656 12.3906C49.6172 12.4219 49.4727 12.4688 49.332 12.5312H49.1914C49.1211 12.5312 49.0703 12.5156 49.0391 12.4844C48.9375 12.5391 48.832 12.5781 48.7227 12.6016C48.6133 12.6172 48.5039 12.625 48.3945 12.625C48.2539 12.625 48.1133 12.6172 47.9727 12.6016C47.8398 12.5781 47.7031 12.5547 47.5625 12.5312C47.4844 12.4219 47.375 12.3398 47.2344 12.2852C47.0938 12.2227 46.9688 12.1641 46.8594 12.1094C46.6328 11.7969 46.4688 11.4961 46.3672 11.207C46.2656 10.9102 46.1602 10.5781 46.0508 10.2109C46.0664 10.1016 46.0938 9.99609 46.1328 9.89453C46.1719 9.78516 46.1875 9.66797 46.1797 9.54297C46.3203 9.13672 46.5039 8.76953 46.7305 8.44141C46.9648 8.10547 47.2305 7.78516 47.5273 7.48047C47.5273 7.43359 47.5352 7.39453 47.5508 7.36328C47.5742 7.33203 47.5781 7.28516 47.5625 7.22266C47.5703 7.23047 47.5859 7.23438 47.6094 7.23438C47.6719 7.23438 47.7109 7.21875 47.7266 7.1875C47.7422 7.14844 47.7461 7.10547 47.7383 7.05859C48.0195 6.87891 48.2734 6.67188 48.5 6.4375C48.7344 6.20312 49 6.00781 49.2969 5.85156C49.3203 5.78125 49.3594 5.72266 49.4141 5.67578C49.4688 5.62891 49.5117 5.57422 49.543 5.51172C49.793 5.44141 50.0195 5.33594 50.2227 5.19531C50.4258 5.05469 50.6406 4.92969 50.8672 4.82031C50.9922 4.75 51.1094 4.70312 51.2188 4.67969C51.3359 4.64844 51.4609 4.61719 51.5938 4.58594C51.6406 4.57031 51.6836 4.55859 51.7227 4.55078C51.7617 4.54297 51.8047 4.53906 51.8516 4.53906C51.9922 4.53906 52.1289 4.56641 52.2617 4.62109C52.3945 4.66797 52.5312 4.69141 52.6719 4.69141C52.7109 4.69141 52.7422 4.69141 52.7656 4.69141C52.7969 4.68359 52.8281 4.67578 52.8594 4.66797C52.9922 4.83203 53.1602 4.95703 53.3633 5.04297C53.4102 5.16016 53.4648 5.26172 53.5273 5.34766C53.5977 5.43359 53.668 5.51953 53.7383 5.60547C53.8086 5.68359 53.8711 5.77344 53.9258 5.875C53.9883 5.96875 54.0273 6.08203 54.043 6.21484ZM52.8711 6.82422C52.8711 6.78516 52.8672 6.75 52.8594 6.71875C52.7812 6.69531 52.707 6.66406 52.6367 6.625C52.5664 6.58594 52.4883 6.56641 52.4023 6.56641C52.3477 6.56641 52.293 6.57812 52.2383 6.60156C52.2305 6.54688 52.207 6.50781 52.168 6.48438C52.1367 6.46094 52.0977 6.44141 52.0508 6.42578C52.0117 6.40234 51.9688 6.38672 51.9219 6.37891C51.8828 6.36328 51.8477 6.33984 51.8164 6.30859C51.793 6.24609 51.7656 6.18359 51.7344 6.12109C51.7109 6.05078 51.6641 6 51.5938 5.96875C51.5234 6.03906 51.4414 6.09766 51.3477 6.14453C51.2539 6.18359 51.1562 6.22266 51.0547 6.26172C50.9609 6.30078 50.8672 6.34766 50.7734 6.40234C50.6875 6.45703 50.6133 6.52344 50.5508 6.60156H50.3398C50.293 6.6875 50.2266 6.75391 50.1406 6.80078C50.0547 6.83984 49.9805 6.89844 49.918 6.97656C49.793 7.03906 49.6758 7.11719 49.5664 7.21094C49.4648 7.29688 49.3633 7.39062 49.2617 7.49219C49.1602 7.58594 49.0586 7.68359 48.957 7.78516C48.8633 7.88672 48.7617 7.98047 48.6523 8.06641C48.5508 8.28516 48.4375 8.47656 48.3125 8.64062C48.1953 8.79688 48.082 8.95703 47.9727 9.12109C47.8711 9.28516 47.7812 9.46484 47.7031 9.66016C47.6328 9.84766 47.5977 10.082 47.5977 10.3633V10.4805C47.5977 10.5195 47.6016 10.5586 47.6094 10.5977C47.7109 10.707 47.793 10.8242 47.8555 10.9492C47.9258 11.0742 48.0391 11.1641 48.1953 11.2188C48.3516 11.2812 48.5156 11.3086 48.6875 11.3008C48.8672 11.293 49.0391 11.3125 49.2031 11.3594C49.5781 11.2891 49.9375 11.1758 50.2812 11.0195C50.6328 10.8555 50.9648 10.6602 51.2773 10.4336C51.3242 10.3945 51.3789 10.3555 51.4414 10.3164C51.5039 10.2695 51.5547 10.2227 51.5938 10.1758C51.6328 10.1367 51.6641 10.0938 51.6875 10.0469C51.7188 10 51.75 9.95703 51.7812 9.91797C51.8438 9.81641 51.9141 9.71484 51.9922 9.61328C52.0703 9.51172 52.1523 9.41797 52.2383 9.33203C52.2773 9.16016 52.3281 8.99609 52.3906 8.83984C52.4531 8.67578 52.5156 8.51562 52.5781 8.35938C52.6406 8.20312 52.6914 8.04297 52.7305 7.87891C52.7773 7.71484 52.8008 7.54297 52.8008 7.36328C52.8008 7.32422 52.7969 7.28125 52.7891 7.23438C52.7891 7.1875 52.7852 7.14453 52.7773 7.10547C52.8398 7.01953 52.8711 6.92578 52.8711 6.82422ZM61.2383 9.98828C61.2383 10.0742 61.207 10.1406 61.1445 10.1875C61.082 10.2266 61.0508 10.2812 61.0508 10.3516C61.0508 10.3828 61.0664 10.4219 61.0977 10.4688C60.9883 10.4688 60.9141 10.5039 60.875 10.5742C60.8359 10.6445 60.7969 10.7227 60.7578 10.8086H60.6055C60.5664 10.8086 60.5352 10.8164 60.5117 10.832C60.4883 10.8477 60.4648 10.8711 60.4414 10.9023C60.4258 10.9258 60.4023 10.9648 60.3711 11.0195C60.2227 11.0508 60.0781 11.1016 59.9375 11.1719C59.8047 11.2344 59.6719 11.3047 59.5391 11.3828C59.4141 11.4531 59.2852 11.5273 59.1523 11.6055C59.0195 11.6758 58.8828 11.7344 58.7422 11.7812C58.6719 11.8984 58.5703 11.9922 58.4375 12.0625H58.4023C58.3633 12.0703 58.3281 12.0664 58.2969 12.0508C58.2734 12.0273 58.2422 12.0156 58.2031 12.0156C58.1797 12.0156 58.1641 12.0195 58.1562 12.0273C57.9219 12.1836 57.6602 12.2617 57.3711 12.2617C57.293 12.2617 57.2188 12.2578 57.1484 12.25C57.0781 12.2344 57.0039 12.2266 56.9258 12.2266C56.9023 12.2266 56.8867 12.2344 56.8789 12.25L56.8555 12.2969C56.8477 12.3125 56.8359 12.3281 56.8203 12.3438C56.8125 12.3594 56.7852 12.3672 56.7383 12.3672C56.6523 12.3672 56.5664 12.3555 56.4805 12.332C56.3945 12.3086 56.3047 12.3047 56.2109 12.3203C56.0312 12.2188 55.8906 12.1211 55.7891 12.0273C55.6875 11.9336 55.5938 11.793 55.5078 11.6055C55.4688 11.5195 55.4141 11.4375 55.3438 11.3594C55.2812 11.2812 55.2344 11.1953 55.2031 11.1016C55.1953 11.0703 55.1836 11.0156 55.168 10.9375C55.1523 10.8516 55.1367 10.7617 55.1211 10.668C55.1055 10.5742 55.0898 10.4844 55.0742 10.3984C55.0664 10.3125 55.0625 10.2539 55.0625 10.2227C55.0625 10.1289 55.0664 10.0391 55.0742 9.95312C55.0898 9.85938 55.1055 9.76562 55.1211 9.67188C55.168 9.375 55.1992 9.07812 55.2148 8.78125C55.2383 8.47656 55.3047 8.18359 55.4141 7.90234C55.3984 7.81641 55.3906 7.73438 55.3906 7.65625V7.39844C55.3906 7.25 55.3711 7.125 55.332 7.02344C55.3945 6.92188 55.4258 6.80859 55.4258 6.68359C55.4258 6.54297 55.3672 6.46094 55.25 6.4375V6.40234C55.25 6.23828 55.1953 6.10938 55.0859 6.01562C55.0859 5.74219 55.1523 5.53906 55.2852 5.40625C55.4258 5.26562 55.6094 5.14453 55.8359 5.04297C55.8672 4.99609 55.8789 4.95703 55.8711 4.92578C55.9258 4.94141 55.9766 4.95703 56.0234 4.97266C56.0703 4.98828 56.1172 4.99609 56.1641 4.99609C56.2422 4.99609 56.3125 4.98438 56.375 4.96094C56.3984 5.05469 56.457 5.11328 56.5508 5.13672C56.6523 5.15234 56.7344 5.17578 56.7969 5.20703V5.35938C56.7969 5.60156 56.8555 5.83203 56.9727 6.05078C56.9414 6.11328 56.9219 6.17969 56.9141 6.25C56.9062 6.32031 56.9023 6.38672 56.9023 6.44922C56.9023 6.54297 56.9062 6.63672 56.9141 6.73047C56.9219 6.82422 56.9258 6.91406 56.9258 7C56.9258 7.09375 56.9141 7.1875 56.8906 7.28125C56.875 7.375 56.832 7.45703 56.7617 7.52734C56.7539 7.62891 56.7461 7.74609 56.7383 7.87891C56.7383 8.00391 56.7305 8.13281 56.7148 8.26562C56.707 8.39844 56.6875 8.52734 56.6562 8.65234C56.625 8.77734 56.5781 8.87891 56.5156 8.95703C56.5078 9.07422 56.5 9.19531 56.4922 9.32031C56.4922 9.4375 56.4922 9.55078 56.4922 9.66016C56.4922 9.83203 56.5 10.0352 56.5156 10.2695C56.5391 10.5039 56.5938 10.6992 56.6797 10.8555C56.7188 10.918 56.793 10.9648 56.9023 10.9961C57.0195 11.0273 57.1133 11.043 57.1836 11.043C57.2695 11.043 57.3555 11.0312 57.4414 11.0078C57.5352 10.9766 57.6016 10.9258 57.6406 10.8555C57.6875 10.8633 57.7188 10.8867 57.7344 10.9258C57.75 10.9648 57.7773 10.9961 57.8164 11.0195C58.2617 10.832 58.707 10.6523 59.1523 10.4805C59.5977 10.3086 60.0352 10.1094 60.4648 9.88281C60.5273 9.91406 60.5938 9.92969 60.6641 9.92969C60.7422 9.92969 60.8203 9.92188 60.8984 9.90625C60.9766 9.89062 61.0547 9.88281 61.1328 9.88281H61.2148C61.2305 9.92969 61.2383 9.96484 61.2383 9.98828ZM68.457 11.1016C68.4258 11.2188 68.375 11.3164 68.3047 11.3945C68.2344 11.4727 68.1523 11.543 68.0586 11.6055C67.9727 11.668 67.8789 11.7266 67.7773 11.7812C67.6758 11.8281 67.5781 11.8828 67.4844 11.9453H67.332C67.0039 11.9453 66.75 11.8672 66.5703 11.7109C66.3984 11.5469 66.2656 11.3477 66.1719 11.1133C66.0781 10.8711 66.0078 10.6133 65.9609 10.3398C65.9219 10.0664 65.8711 9.81641 65.8086 9.58984C65.7148 9.66797 65.6367 9.76172 65.5742 9.87109C65.5117 9.97266 65.4453 10.0742 65.375 10.1758C65.3125 10.2773 65.2383 10.3711 65.1523 10.457C65.0742 10.543 64.9688 10.6016 64.8359 10.6328C64.8125 10.6875 64.7852 10.7422 64.7539 10.7969C64.7305 10.8516 64.7148 10.9102 64.707 10.9727C64.5352 11.0664 64.3789 11.1758 64.2383 11.3008C64.0977 11.4258 63.957 11.5547 63.8164 11.6875C63.6758 11.8203 63.5312 11.9492 63.3828 12.0742C63.2422 12.1914 63.082 12.2891 62.9023 12.3672C62.8945 12.3594 62.8789 12.3555 62.8555 12.3555C62.7617 12.3555 62.6758 12.3789 62.5977 12.4258C62.5195 12.4648 62.4336 12.4844 62.3398 12.4844C62.2773 12.4844 62.2188 12.4727 62.1641 12.4492C62.1172 12.4258 62.0664 12.3984 62.0117 12.3672C61.9648 12.3359 61.9141 12.3125 61.8594 12.2969C61.8047 12.2812 61.7461 12.2773 61.6836 12.2852C61.6055 12.1445 61.5 12.0156 61.3672 11.8984C61.2422 11.7734 61.1641 11.6328 61.1328 11.4766C61.1172 11.4062 61.1055 11.3359 61.0977 11.2656C61.0977 11.1875 61.0898 11.1094 61.0742 11.0312C61.0508 10.9141 61.0195 10.7969 60.9805 10.6797C60.9414 10.5547 60.9102 10.4297 60.8867 10.3047C60.9258 10.0938 60.9648 9.86328 61.0039 9.61328C61.0352 9.35547 61.0742 9.10156 61.1211 8.85156C61.1758 8.59375 61.2461 8.35156 61.332 8.125C61.4258 7.89062 61.543 7.69141 61.6836 7.52734L61.6719 7.44531C61.6719 7.32031 61.6953 7.20312 61.7422 7.09375C61.7891 6.98438 61.8398 6.87891 61.8945 6.77734C61.9492 6.67578 61.9961 6.57422 62.0352 6.47266C62.0742 6.37109 62.082 6.25781 62.0586 6.13281C62.1523 6.08594 62.25 6.04688 62.3516 6.01562C62.4531 5.98438 62.5586 5.96875 62.668 5.96875C62.7695 5.96875 62.8633 5.98438 62.9492 6.01562C62.9336 6.07812 62.9609 6.11719 63.0312 6.13281V6.16797C63.0312 6.33203 63.0117 6.49219 62.9727 6.64844C62.9336 6.80469 62.8867 6.96094 62.832 7.11719C62.7773 7.26562 62.7227 7.41797 62.668 7.57422C62.6211 7.72266 62.5859 7.875 62.5625 8.03125C62.5312 8.03906 62.5078 8.05469 62.4922 8.07812C62.4844 8.10156 62.4766 8.125 62.4688 8.14844C62.4609 8.17188 62.4492 8.19141 62.4336 8.20703C62.418 8.22266 62.3945 8.23047 62.3633 8.23047C62.3164 8.50391 62.2656 8.77734 62.2109 9.05078C62.1641 9.31641 62.1406 9.58594 62.1406 9.85938C62.1406 10.0234 62.1562 10.1914 62.1875 10.3633C62.2188 10.5352 62.2773 10.6992 62.3633 10.8555L62.4102 10.8438C62.4961 10.8438 62.5625 10.8633 62.6094 10.9023C62.6641 10.9414 62.7344 10.9805 62.8203 11.0195C62.8828 11.0039 62.9414 10.9844 62.9961 10.9609C63.0508 10.9297 63.0742 10.8789 63.0664 10.8086C63.168 10.8008 63.2539 10.7773 63.3242 10.7383C63.3945 10.6914 63.457 10.6406 63.5117 10.5859L63.6875 10.4219C63.75 10.3672 63.8242 10.3281 63.9102 10.3047C63.9102 10.2578 63.9219 10.2227 63.9453 10.1992L64.0156 10.1289C64.0391 10.1055 64.0547 10.082 64.0625 10.0586C64.0781 10.0273 64.082 9.98438 64.0742 9.92969C64.168 9.92188 64.2383 9.89844 64.2852 9.85938C64.3398 9.82031 64.3867 9.77734 64.4258 9.73047C64.4727 9.67578 64.5156 9.62109 64.5547 9.56641C64.5938 9.51172 64.6445 9.46484 64.707 9.42578C64.7617 9.30859 64.8359 9.15234 64.9297 8.95703C65.0312 8.76172 65.1289 8.55859 65.2227 8.34766C65.3242 8.13672 65.4102 7.9375 65.4805 7.75C65.5586 7.55469 65.5977 7.40625 65.5977 7.30469C65.5977 7.26562 65.5859 7.23047 65.5625 7.19922C65.5469 7.16797 65.543 7.13281 65.5508 7.09375V7.05859C65.6133 6.98047 65.668 6.89453 65.7148 6.80078C65.7695 6.70703 65.8242 6.61719 65.8789 6.53125C65.9414 6.44531 66.0078 6.36719 66.0781 6.29688C66.1484 6.22656 66.2383 6.17188 66.3477 6.13281C66.4727 6.17188 66.5977 6.19922 66.7227 6.21484C66.8555 6.23047 66.9805 6.26172 67.0977 6.30859C67.1055 6.50391 67.125 6.73047 67.1562 6.98828C67.1875 7.24609 67.2422 7.46484 67.3203 7.64453C67.3203 7.74609 67.3164 7.84375 67.3086 7.9375C67.3086 8.03125 67.3086 8.125 67.3086 8.21875C67.3086 8.375 67.3125 8.53516 67.3203 8.69922C67.3359 8.86328 67.3633 9.01562 67.4023 9.15625C67.3477 9.27344 67.3203 9.39844 67.3203 9.53125C67.3203 9.71094 67.3477 9.88281 67.4023 10.0469C67.457 10.2031 67.4961 10.3711 67.5195 10.5508C67.6211 10.6914 67.7539 10.7617 67.918 10.7617C67.957 10.7617 67.9883 10.7578 68.0117 10.75C68.043 10.7422 68.0742 10.7305 68.1055 10.7148C68.168 10.7852 68.2227 10.8555 68.2695 10.9258C68.3242 10.9883 68.3867 11.0469 68.457 11.1016ZM77.6328 10.8906C77.6328 10.9688 77.6094 11.0352 77.5625 11.0898C77.5234 11.1367 77.4727 11.1797 77.4102 11.2188C77.3555 11.2578 77.2969 11.293 77.2344 11.3242C77.1797 11.3555 77.1289 11.3945 77.082 11.4414C77.0508 11.4727 77.0273 11.5117 77.0117 11.5586C77.0039 11.5977 76.9844 11.625 76.9531 11.6406C76.9062 11.6797 76.8555 11.7031 76.8008 11.7109C76.7461 11.7188 76.6875 11.7305 76.625 11.7461C76.5703 11.7539 76.5156 11.7695 76.4609 11.793C76.4062 11.8086 76.3594 11.8438 76.3203 11.8984C75.9531 11.9375 75.5898 11.9883 75.2305 12.0508C74.8789 12.1133 74.5156 12.1445 74.1406 12.1445C74.0703 12.1445 73.9922 12.1523 73.9062 12.168C73.8281 12.1758 73.7539 12.1836 73.6836 12.1914C73.5195 12.207 73.3555 12.2188 73.1914 12.2266C73.0352 12.2344 72.875 12.2383 72.7109 12.2383C72.4844 12.2383 72.2578 12.2305 72.0312 12.2148C71.8047 12.1914 71.582 12.1562 71.3633 12.1094C71.3086 12.0703 71.2461 12.0391 71.1758 12.0156C71.1055 11.9922 71.0312 11.9688 70.9531 11.9453C70.8828 11.9219 70.8164 11.8945 70.7539 11.8633C70.6914 11.832 70.6445 11.7852 70.6133 11.7227C70.4961 11.7148 70.3906 11.6914 70.2969 11.6523C70.2109 11.6133 70.1289 11.5703 70.0508 11.5234C69.9805 11.4688 69.9062 11.4141 69.8281 11.3594C69.75 11.3047 69.6602 11.2578 69.5586 11.2188C69.4805 11.1094 69.3984 11.0039 69.3125 10.9023C69.2344 10.793 69.1367 10.7031 69.0195 10.6328C68.9961 10.4844 68.957 10.3359 68.9023 10.1875C68.8555 10.0391 68.8047 9.89453 68.75 9.75391C68.7031 9.60547 68.6641 9.45703 68.6328 9.30859C68.5938 9.16016 68.5742 9.00781 68.5742 8.85156C68.5742 8.74219 68.5898 8.60938 68.6211 8.45312C68.6523 8.29688 68.6914 8.14062 68.7383 7.98438C68.793 7.82031 68.8555 7.66797 68.9258 7.52734C68.9961 7.38672 69.0664 7.27344 69.1367 7.1875C69.1602 7.16406 69.1875 7.14453 69.2188 7.12891C69.25 7.11328 69.2773 7.08984 69.3008 7.05859C69.3711 6.98047 69.4453 6.91797 69.5234 6.87109C69.6016 6.81641 69.6836 6.75391 69.7695 6.68359C69.8008 6.65234 69.8242 6.61719 69.8398 6.57812C69.8633 6.53906 69.8945 6.50391 69.9336 6.47266C69.957 6.45703 69.9883 6.45312 70.0273 6.46094C70.0742 6.46875 70.1133 6.46094 70.1445 6.4375C70.1758 6.41406 70.1914 6.38672 70.1914 6.35547C70.1914 6.32422 70.2031 6.29688 70.2266 6.27344C70.2344 6.26562 70.2578 6.26562 70.2969 6.27344C70.3359 6.27344 70.3594 6.27344 70.3672 6.27344C70.4219 6.27344 70.4844 6.23828 70.5547 6.16797C70.625 6.08984 70.6836 6.03906 70.7305 6.01562C70.7852 5.98438 70.8398 5.96484 70.8945 5.95703C70.9492 5.94141 71.0078 5.91797 71.0703 5.88672C71.1562 5.83984 71.2383 5.80469 71.3164 5.78125C71.4023 5.75 71.4883 5.71484 71.5742 5.67578C71.6211 5.66016 71.6641 5.63281 71.7031 5.59375C71.7422 5.55469 71.7812 5.52734 71.8203 5.51172C71.8906 5.48828 71.9648 5.47266 72.043 5.46484C72.1289 5.44922 72.207 5.4375 72.2773 5.42969C72.3555 5.41406 72.4297 5.39844 72.5 5.38281C72.5781 5.35938 72.6484 5.32031 72.7109 5.26562H72.8047C72.9453 5.26562 73.082 5.24609 73.2148 5.20703C73.3477 5.16797 73.4844 5.14844 73.625 5.14844C73.6641 5.14844 73.7227 5.15625 73.8008 5.17188C73.8633 5.13281 73.9336 5.11328 74.0117 5.11328C74.1445 5.11328 74.2773 5.14844 74.4102 5.21875C74.543 5.28125 74.6797 5.3125 74.8203 5.3125H74.8906C74.9219 5.3125 74.9531 5.30859 74.9844 5.30078C75.0703 5.38672 75.1719 5.43359 75.2891 5.44141C75.4141 5.44922 75.5195 5.48438 75.6055 5.54688C75.6602 5.59375 75.7031 5.64844 75.7344 5.71094C75.7734 5.77344 75.8047 5.83984 75.8281 5.91016L75.8984 6.12109C75.9219 6.19141 75.9531 6.25391 75.9922 6.30859C75.9531 6.58984 75.8359 6.81641 75.6406 6.98828C75.4531 7.15234 75.2148 7.23438 74.9258 7.23438C74.8164 7.23438 74.7227 7.22266 74.6445 7.19922C74.5742 7.16797 74.5078 7.13672 74.4453 7.10547C74.3906 7.07422 74.332 7.04297 74.2695 7.01172C74.207 6.98047 74.1367 6.95703 74.0586 6.94141C74.1445 6.78516 74.1992 6.61719 74.2227 6.4375C74.1367 6.39844 74.0508 6.37109 73.9648 6.35547C73.8789 6.33984 73.7969 6.3125 73.7188 6.27344C73.5078 6.32812 73.3008 6.36719 73.0977 6.39062C72.9023 6.40625 72.7188 6.48828 72.5469 6.63672C72.5078 6.62891 72.4648 6.62109 72.418 6.61328C72.3789 6.60547 72.3398 6.60156 72.3008 6.60156C72.2539 6.60156 72.1602 6.63672 72.0195 6.70703C71.8789 6.76953 71.7266 6.84375 71.5625 6.92969C71.4062 7.01562 71.2539 7.10156 71.1055 7.1875C70.9648 7.27344 70.8672 7.33203 70.8125 7.36328C70.75 7.40234 70.6953 7.44922 70.6484 7.50391C70.6016 7.55859 70.5547 7.61719 70.5078 7.67969C70.4609 7.73438 70.4141 7.78906 70.3672 7.84375C70.3203 7.89062 70.2617 7.92578 70.1914 7.94922C70.1758 8.03516 70.1484 8.10938 70.1094 8.17188C70.0703 8.23438 70.0273 8.30078 69.9805 8.37109C69.9727 8.51172 69.957 8.65234 69.9336 8.79297C69.918 8.93359 69.9102 9.07422 69.9102 9.21484V9.36719C69.9102 9.41406 69.918 9.45703 69.9336 9.49609C70.0117 9.59766 70.0742 9.71094 70.1211 9.83594C70.1758 9.96094 70.2656 10.0469 70.3906 10.0938C70.3984 10.125 70.3945 10.1445 70.3789 10.1523C70.3711 10.1602 70.3633 10.1797 70.3555 10.2109C70.4023 10.2969 70.4609 10.3672 70.5312 10.4219C70.6094 10.4688 70.6875 10.5195 70.7656 10.5742C70.8438 10.6211 70.918 10.6719 70.9883 10.7266C71.0586 10.7812 71.1133 10.8516 71.1523 10.9375C71.2695 10.9375 71.3789 10.957 71.4805 10.9961C71.5898 11.0352 71.6914 11.0781 71.7852 11.125C71.8867 11.1719 71.9805 11.2148 72.0664 11.2539C72.1602 11.293 72.2539 11.3125 72.3477 11.3125C72.4336 11.3125 72.5117 11.3008 72.582 11.2773C72.7852 11.3398 72.9883 11.3867 73.1914 11.418C73.4023 11.4414 73.6133 11.4531 73.8242 11.4531C74.082 11.4531 74.3398 11.4375 74.5977 11.4062C74.8555 11.375 75.1133 11.3477 75.3711 11.3242C75.4648 11.3086 75.5547 11.3008 75.6406 11.3008C75.7266 11.3008 75.8125 11.293 75.8984 11.2773C76.0078 11.2617 76.1094 11.2109 76.2031 11.125C76.3047 11.0391 76.4023 10.9766 76.4961 10.9375C76.582 10.9922 76.6836 11.0195 76.8008 11.0195C76.9336 11.0195 77.0625 11 77.1875 10.9609C77.3125 10.9141 77.4414 10.8906 77.5742 10.8906H77.6328ZM75.3594 15.625C75.3594 15.6797 75.3555 15.75 75.3477 15.8359C75.3398 15.9219 75.3281 15.9883 75.3125 16.0352C75.2812 16.1211 75.2266 16.2148 75.1484 16.3164C75.0781 16.4258 74.9961 16.5352 74.9023 16.6445C74.8086 16.7617 74.7148 16.8672 74.6211 16.9609C74.5352 17.0625 74.457 17.1445 74.3867 17.207C74.2852 17.3008 74.1758 17.3828 74.0586 17.4531C73.9414 17.5234 73.8281 17.5977 73.7188 17.6758C73.5938 17.7617 73.4727 17.8477 73.3555 17.9336C73.2461 18.0195 73.125 18.1016 72.9922 18.1797C72.9297 18.2188 72.8633 18.2695 72.793 18.332C72.7305 18.3945 72.6602 18.4453 72.582 18.4844C72.5508 18.5 72.5156 18.5039 72.4766 18.4961C72.4453 18.4961 72.4102 18.5039 72.3711 18.5195C72.2773 18.5586 72.1758 18.625 72.0664 18.7188C71.957 18.8125 71.8477 18.8867 71.7383 18.9414C71.668 18.9727 71.5898 18.9844 71.5039 18.9766C71.418 18.9766 71.3555 19.0195 71.3164 19.1055H71.2344C71.1016 19.1055 70.9688 19.1211 70.8359 19.1523C70.7109 19.1914 70.582 19.2109 70.4492 19.2109C70.3477 19.2109 70.2617 19.1914 70.1914 19.1523C70.1289 19.168 70.0625 19.1797 69.9922 19.1875C69.9297 19.2031 69.8672 19.2188 69.8047 19.2344C69.6484 19.1719 69.5234 19.0703 69.4297 18.9297C69.3438 18.7891 69.3008 18.6367 69.3008 18.4727C69.3008 18.293 69.3555 18.1289 69.4648 17.9805C69.5273 17.957 69.5898 17.9258 69.6523 17.8867C69.7227 17.8555 69.7891 17.8398 69.8516 17.8398C69.9141 17.8398 69.9805 17.875 70.0508 17.9453C70.1289 18.0234 70.2031 18.0742 70.2734 18.0977C70.3125 18.1133 70.3516 18.1172 70.3906 18.1094C70.4297 18.1016 70.4688 18.0977 70.5078 18.0977C70.5859 18.0977 70.6484 18.125 70.6953 18.1797C70.8047 18.1328 70.9258 18.082 71.0586 18.0273C71.1992 17.9727 71.3008 17.8828 71.3633 17.7578C71.5742 17.7344 71.7539 17.6758 71.9023 17.582C72.0586 17.4883 72.2031 17.3867 72.3359 17.2773C72.4766 17.168 72.6172 17.0586 72.7578 16.9492C72.8984 16.8398 73.0625 16.7578 73.25 16.7031C73.3906 16.5938 73.5117 16.4727 73.6133 16.3398C73.7227 16.2148 73.8711 16.1289 74.0586 16.082C74.0352 16.0117 74.0234 15.9414 74.0234 15.8711C74.0234 15.8164 74.0312 15.7656 74.0469 15.7188L74.0938 15.5781C74.0547 15.5078 74 15.4531 73.9297 15.4141C73.8672 15.3828 73.7969 15.3516 73.7188 15.3203C73.6484 15.2891 73.5781 15.2578 73.5078 15.2266C73.4375 15.2031 73.3789 15.1641 73.332 15.1094C73.2461 15.1719 73.1523 15.2109 73.0508 15.2266C72.957 15.25 72.8711 15.3125 72.793 15.4141C72.457 15.4297 72.1211 15.4531 71.7852 15.4844C71.457 15.5234 71.125 15.543 70.7891 15.543H70.6602C70.6133 15.543 70.5664 15.5391 70.5195 15.5312C70.457 15.4766 70.3945 15.4258 70.332 15.3789L70.1445 15.2383C70.0977 15.1133 70.0742 14.9727 70.0742 14.8164C70.0742 14.6367 70.1016 14.4648 70.1562 14.3008C70.2188 14.1367 70.2852 13.9727 70.3555 13.8086C70.3477 13.7461 70.375 13.7109 70.4375 13.7031C70.5 13.7031 70.543 13.6836 70.5664 13.6445C70.6445 13.4961 70.707 13.3516 70.7539 13.2109C70.8008 13.0781 70.9062 12.9688 71.0703 12.8828C71.0938 12.6797 71.1445 12.5039 71.2227 12.3555C71.3008 12.1992 71.3828 12.0312 71.4688 11.8516C71.5 11.7891 71.5234 11.7305 71.5391 11.6758C71.5625 11.6211 71.5898 11.5625 71.6211 11.5C71.6602 11.4141 71.7188 11.3438 71.7969 11.2891C71.875 11.2344 71.957 11.207 72.043 11.207C72.1289 11.207 72.2109 11.2305 72.2891 11.2773C72.3672 11.3164 72.4375 11.3711 72.5 11.4414C72.5703 11.5117 72.625 11.5898 72.6641 11.6758C72.7109 11.7617 72.7383 11.8438 72.7461 11.9219C72.5742 12.2734 72.4023 12.6211 72.2305 12.9648C72.0664 13.3008 71.918 13.6523 71.7852 14.0195C71.8086 14.043 71.8242 14.0547 71.832 14.0547C71.8633 14.0547 71.8906 14.0391 71.9141 14.0078C71.9453 13.9766 71.9688 13.9531 71.9844 13.9375C72.0859 13.9766 72.1914 14 72.3008 14.0078C72.4102 14.0234 72.5195 14.0312 72.6289 14.0312C72.6992 14.0312 72.7773 14.0234 72.8633 14.0078C72.9492 14 73.0234 13.9766 73.0859 13.9375C73.4141 13.9844 73.7422 14.0312 74.0703 14.0781C74.3984 14.1328 74.7148 14.2227 75.0195 14.3477C75.0273 14.4336 75.0625 14.4922 75.125 14.5234C75.1875 14.5547 75.2383 14.5977 75.2773 14.6523C75.2852 14.8164 75.3008 14.9766 75.3242 15.1328C75.3477 15.2969 75.3594 15.4609 75.3594 15.625ZM84.957 6.21484C84.9102 6.28516 84.8828 6.36328 84.875 6.44922C84.8672 6.53516 84.8633 6.61328 84.8633 6.68359C84.8633 6.77734 84.8633 6.87109 84.8633 6.96484C84.8711 7.05078 84.875 7.13672 84.875 7.22266V7.39844C84.8594 7.45312 84.8359 7.50781 84.8047 7.5625C84.7734 7.61719 84.75 7.67188 84.7344 7.72656C84.625 8.01562 84.5703 8.30469 84.5703 8.59375V8.61719C84.5312 8.71094 84.4922 8.79688 84.4531 8.875C84.4219 8.95312 84.3906 9.03125 84.3594 9.10938C84.3281 9.17969 84.3047 9.25781 84.2891 9.34375C84.2734 9.42188 84.2695 9.51562 84.2773 9.625C84.168 9.89844 84.0234 10.1484 83.8438 10.375C83.6641 10.5938 83.4883 10.8203 83.3164 11.0547C83.1523 11.1172 83 11.1992 82.8594 11.3008C82.7266 11.4023 82.5977 11.5156 82.4727 11.6406C82.2305 11.7188 81.9922 11.8086 81.7578 11.9102C81.5234 12.0117 81.3125 12.1484 81.125 12.3203C80.9766 12.3359 80.8281 12.3594 80.6797 12.3906C80.5312 12.4219 80.3867 12.4688 80.2461 12.5312H80.1055C80.0352 12.5312 79.9844 12.5156 79.9531 12.4844C79.8516 12.5391 79.7461 12.5781 79.6367 12.6016C79.5273 12.6172 79.418 12.625 79.3086 12.625C79.168 12.625 79.0273 12.6172 78.8867 12.6016C78.7539 12.5781 78.6172 12.5547 78.4766 12.5312C78.3984 12.4219 78.2891 12.3398 78.1484 12.2852C78.0078 12.2227 77.8828 12.1641 77.7734 12.1094C77.5469 11.7969 77.3828 11.4961 77.2812 11.207C77.1797 10.9102 77.0742 10.5781 76.9648 10.2109C76.9805 10.1016 77.0078 9.99609 77.0469 9.89453C77.0859 9.78516 77.1016 9.66797 77.0938 9.54297C77.2344 9.13672 77.418 8.76953 77.6445 8.44141C77.8789 8.10547 78.1445 7.78516 78.4414 7.48047C78.4414 7.43359 78.4492 7.39453 78.4648 7.36328C78.4883 7.33203 78.4922 7.28516 78.4766 7.22266C78.4844 7.23047 78.5 7.23438 78.5234 7.23438C78.5859 7.23438 78.625 7.21875 78.6406 7.1875C78.6562 7.14844 78.6602 7.10547 78.6523 7.05859C78.9336 6.87891 79.1875 6.67188 79.4141 6.4375C79.6484 6.20312 79.9141 6.00781 80.2109 5.85156C80.2344 5.78125 80.2734 5.72266 80.3281 5.67578C80.3828 5.62891 80.4258 5.57422 80.457 5.51172C80.707 5.44141 80.9336 5.33594 81.1367 5.19531C81.3398 5.05469 81.5547 4.92969 81.7812 4.82031C81.9062 4.75 82.0234 4.70312 82.1328 4.67969C82.25 4.64844 82.375 4.61719 82.5078 4.58594C82.5547 4.57031 82.5977 4.55859 82.6367 4.55078C82.6758 4.54297 82.7188 4.53906 82.7656 4.53906C82.9062 4.53906 83.043 4.56641 83.1758 4.62109C83.3086 4.66797 83.4453 4.69141 83.5859 4.69141C83.625 4.69141 83.6562 4.69141 83.6797 4.69141C83.7109 4.68359 83.7422 4.67578 83.7734 4.66797C83.9062 4.83203 84.0742 4.95703 84.2773 5.04297C84.3242 5.16016 84.3789 5.26172 84.4414 5.34766C84.5117 5.43359 84.582 5.51953 84.6523 5.60547C84.7227 5.68359 84.7852 5.77344 84.8398 5.875C84.9023 5.96875 84.9414 6.08203 84.957 6.21484ZM83.7852 6.82422C83.7852 6.78516 83.7812 6.75 83.7734 6.71875C83.6953 6.69531 83.6211 6.66406 83.5508 6.625C83.4805 6.58594 83.4023 6.56641 83.3164 6.56641C83.2617 6.56641 83.207 6.57812 83.1523 6.60156C83.1445 6.54688 83.1211 6.50781 83.082 6.48438C83.0508 6.46094 83.0117 6.44141 82.9648 6.42578C82.9258 6.40234 82.8828 6.38672 82.8359 6.37891C82.7969 6.36328 82.7617 6.33984 82.7305 6.30859C82.707 6.24609 82.6797 6.18359 82.6484 6.12109C82.625 6.05078 82.5781 6 82.5078 5.96875C82.4375 6.03906 82.3555 6.09766 82.2617 6.14453C82.168 6.18359 82.0703 6.22266 81.9688 6.26172C81.875 6.30078 81.7812 6.34766 81.6875 6.40234C81.6016 6.45703 81.5273 6.52344 81.4648 6.60156H81.2539C81.207 6.6875 81.1406 6.75391 81.0547 6.80078C80.9688 6.83984 80.8945 6.89844 80.832 6.97656C80.707 7.03906 80.5898 7.11719 80.4805 7.21094C80.3789 7.29688 80.2773 7.39062 80.1758 7.49219C80.0742 7.58594 79.9727 7.68359 79.8711 7.78516C79.7773 7.88672 79.6758 7.98047 79.5664 8.06641C79.4648 8.28516 79.3516 8.47656 79.2266 8.64062C79.1094 8.79688 78.9961 8.95703 78.8867 9.12109C78.7852 9.28516 78.6953 9.46484 78.6172 9.66016C78.5469 9.84766 78.5117 10.082 78.5117 10.3633V10.4805C78.5117 10.5195 78.5156 10.5586 78.5234 10.5977C78.625 10.707 78.707 10.8242 78.7695 10.9492C78.8398 11.0742 78.9531 11.1641 79.1094 11.2188C79.2656 11.2812 79.4297 11.3086 79.6016 11.3008C79.7812 11.293 79.9531 11.3125 80.1172 11.3594C80.4922 11.2891 80.8516 11.1758 81.1953 11.0195C81.5469 10.8555 81.8789 10.6602 82.1914 10.4336C82.2383 10.3945 82.293 10.3555 82.3555 10.3164C82.418 10.2695 82.4688 10.2227 82.5078 10.1758C82.5469 10.1367 82.5781 10.0938 82.6016 10.0469C82.6328 10 82.6641 9.95703 82.6953 9.91797C82.7578 9.81641 82.8281 9.71484 82.9062 9.61328C82.9844 9.51172 83.0664 9.41797 83.1523 9.33203C83.1914 9.16016 83.2422 8.99609 83.3047 8.83984C83.3672 8.67578 83.4297 8.51562 83.4922 8.35938C83.5547 8.20312 83.6055 8.04297 83.6445 7.87891C83.6914 7.71484 83.7148 7.54297 83.7148 7.36328C83.7148 7.32422 83.7109 7.28125 83.7031 7.23438C83.7031 7.1875 83.6992 7.14453 83.6914 7.10547C83.7539 7.01953 83.7852 6.92578 83.7852 6.82422ZM89.3398 1.50391C89.3398 1.58984 89.3242 1.66406 89.293 1.72656C89.2617 1.78906 89.2266 1.84766 89.1875 1.90234C89.1484 1.95703 89.1094 2.01562 89.0703 2.07812C89.0312 2.13281 89.0039 2.19922 88.9883 2.27734L88.9531 2.28906C88.9219 2.28906 88.8945 2.28516 88.8711 2.27734C88.8555 2.26172 88.8359 2.25 88.8125 2.24219C88.7969 2.28906 88.7656 2.32422 88.7188 2.34766C88.6719 2.36328 88.625 2.37891 88.5781 2.39453C88.5312 2.41016 88.4844 2.42969 88.4375 2.45312C88.3984 2.47656 88.3711 2.51562 88.3555 2.57031C87.9102 2.70312 87.4688 2.83984 87.0312 2.98047C86.6016 3.11328 86.1719 3.26953 85.7422 3.44922C85.6953 3.43359 85.6562 3.42578 85.625 3.42578C85.5625 3.42578 85.5039 3.43359 85.4492 3.44922C85.3945 3.45703 85.3359 3.46094 85.2734 3.46094C85.2266 3.46094 85.1875 3.45703 85.1562 3.44922C85.0625 3.37109 84.9609 3.30469 84.8516 3.25C84.7422 3.19531 84.6406 3.13672 84.5469 3.07422C84.4531 3.00391 84.3672 2.92578 84.2891 2.83984C84.2188 2.74609 84.1719 2.62891 84.1484 2.48828C84.0703 2.45703 84.0117 2.40625 83.9727 2.33594C83.9336 2.26562 83.9023 2.19141 83.8789 2.11328C83.8555 2.02734 83.8281 1.94531 83.7969 1.86719C83.7734 1.78125 83.7383 1.71094 83.6914 1.65625C83.4727 1.65625 83.2773 1.67969 83.1055 1.72656C82.9414 1.77344 82.7812 1.83203 82.625 1.90234C82.4766 1.97266 82.3281 2.04688 82.1797 2.125C82.0312 2.19531 81.8633 2.26172 81.6758 2.32422C81.4414 2.57422 81.1797 2.79297 80.8906 2.98047C80.6016 3.16016 80.3164 3.34375 80.0352 3.53125C79.9336 3.47656 79.8438 3.42578 79.7656 3.37891C79.6953 3.33203 79.6055 3.30078 79.4961 3.28516C79.4336 3.18359 79.3789 3.08203 79.332 2.98047C79.2852 2.87891 79.2383 2.77344 79.1914 2.66406C79.2305 2.47656 79.3164 2.33594 79.4492 2.24219C79.5898 2.14844 79.7422 2.07031 79.9062 2.00781C80.0703 1.94531 80.2305 1.87891 80.3867 1.80859C80.543 1.73828 80.6641 1.62891 80.75 1.48047C80.7812 1.50391 80.8203 1.51562 80.8672 1.51562C81.0703 1.42969 81.2578 1.32422 81.4297 1.19922C81.6016 1.07422 81.7852 0.964844 81.9805 0.871094C82.043 0.839844 82.1055 0.816406 82.168 0.800781C82.2383 0.777344 82.3086 0.753906 82.3789 0.730469C82.4727 0.699219 82.5312 0.640625 82.5547 0.554688C82.6797 0.546875 82.7969 0.523437 82.9062 0.484375C83.0156 0.445313 83.125 0.40625 83.2344 0.367188C83.3438 0.320312 83.4531 0.28125 83.5625 0.25C83.6719 0.21875 83.7891 0.203125 83.9141 0.203125C83.9609 0.203125 84 0.207031 84.0312 0.214844C84.0703 0.214844 84.1094 0.21875 84.1484 0.226562C84.2188 0.242187 84.2773 0.265625 84.3242 0.296875C84.3789 0.320312 84.4492 0.324219 84.5352 0.308594C84.5352 0.371094 84.5508 0.421875 84.582 0.460938C84.6211 0.492188 84.6602 0.519531 84.6992 0.542969C84.7461 0.566406 84.7852 0.59375 84.8164 0.625C84.8555 0.648438 84.8828 0.683594 84.8984 0.730469C84.9141 0.777344 84.9258 0.832031 84.9336 0.894531C84.9414 0.949219 84.9531 1 84.9688 1.04688C85.0234 1.27344 85.1094 1.47656 85.2266 1.65625C85.3516 1.83594 85.5234 1.97266 85.7422 2.06641C86.2656 1.94141 86.7734 1.78906 87.2656 1.60938C87.7656 1.42188 88.2695 1.23828 88.7773 1.05859C88.8789 1.07422 88.9766 1.10547 89.0703 1.15234C89.1641 1.19141 89.2461 1.24609 89.3164 1.31641C89.332 1.39453 89.3398 1.45703 89.3398 1.50391ZM93.1836 5.54688V5.59375C93.1289 5.60938 93.1016 5.64844 93.1016 5.71094C93.0156 5.75 92.9258 5.78125 92.832 5.80469C92.7383 5.82031 92.6484 5.84766 92.5625 5.88672C92.4766 5.87891 92.3867 5.875 92.293 5.875C92.207 5.86719 92.1211 5.86328 92.0352 5.86328C91.8008 5.86328 91.5664 5.87109 91.332 5.88672C91.0977 5.90234 90.8633 5.90234 90.6289 5.88672C90.5195 5.94922 90.3984 6 90.2656 6.03906C90.1406 6.07031 90.0195 6.08594 89.9023 6.08594C89.8086 6.08594 89.7266 6.07422 89.6562 6.05078C89.4688 6.14453 89.2617 6.22266 89.0352 6.28516C88.8164 6.34766 88.5938 6.41016 88.3672 6.47266C88.1406 6.52734 87.9219 6.59375 87.7109 6.67188C87.5078 6.74219 87.3281 6.84375 87.1719 6.97656C87.1562 7.08594 87.1445 7.19531 87.1367 7.30469C87.1289 7.40625 87.125 7.50781 87.125 7.60938C87.125 7.71875 87.1289 7.82031 87.1367 7.91406C87.1523 8.00781 87.1797 8.10156 87.2188 8.19531C87.2578 8.21094 87.3008 8.22266 87.3477 8.23047C87.4023 8.23828 87.4492 8.24219 87.4883 8.24219C87.5273 8.24219 87.5664 8.23828 87.6055 8.23047C87.6445 8.21484 87.6719 8.1875 87.6875 8.14844C87.8047 8.13281 87.9219 8.12891 88.0391 8.13672C88.1562 8.13672 88.2734 8.13672 88.3906 8.13672C88.5078 8.13672 88.6211 8.13281 88.7305 8.125C88.8477 8.11719 88.9609 8.09766 89.0703 8.06641C89.1953 8.03516 89.3164 8.01562 89.4336 8.00781C89.5586 8 89.6797 7.99219 89.7969 7.98438C89.9141 7.97656 90.0352 7.96484 90.1602 7.94922C90.2852 7.92578 90.4141 7.88281 90.5469 7.82031C90.6484 7.85938 90.75 7.87891 90.8516 7.87891C90.9609 7.87891 91.0664 7.88672 91.168 7.90234C91.2227 7.94141 91.2656 7.98438 91.2969 8.03125C91.3359 8.07812 91.3555 8.13281 91.3555 8.19531C91.3555 8.30469 91.3164 8.41406 91.2383 8.52344C91.1602 8.63281 91.0977 8.73438 91.0508 8.82812H90.9219C90.7344 8.82812 90.5508 8.85547 90.3711 8.91016C90.1992 8.95703 90.0234 9.01562 89.8438 9.08594C89.6719 9.14844 89.4961 9.20703 89.3164 9.26172C89.1445 9.30859 88.9648 9.33203 88.7773 9.33203C88.7461 9.33203 88.7266 9.35156 88.7188 9.39062C88.7188 9.42188 88.7109 9.44531 88.6953 9.46094C88.6562 9.45312 88.5977 9.44922 88.5195 9.44922C88.3398 9.44922 88.168 9.46875 88.0039 9.50781C87.8398 9.54688 87.6719 9.56641 87.5 9.56641C87.4531 9.56641 87.4062 9.56641 87.3594 9.56641C87.3125 9.55859 87.2656 9.55078 87.2188 9.54297C87.1797 9.60547 87.1289 9.64844 87.0664 9.67188C87.0039 9.6875 86.9453 9.71875 86.8906 9.76562C86.8672 9.83594 86.8516 9.92188 86.8438 10.0234C86.8438 10.125 86.8398 10.2305 86.832 10.3398C86.832 10.4414 86.8242 10.5391 86.8086 10.6328C86.793 10.7266 86.7617 10.8008 86.7148 10.8555C86.7227 10.8945 86.7539 10.9102 86.8086 10.9023C86.8633 10.8867 86.8906 10.9102 86.8906 10.9727C86.8906 11.043 86.8828 11.1172 86.8672 11.1953C86.8516 11.2734 86.8438 11.3516 86.8438 11.4297C86.8438 11.5781 86.8594 11.7422 86.8906 11.9219C86.9297 12.0938 86.9844 12.2539 87.0547 12.4023C87.1328 12.5508 87.2344 12.6758 87.3594 12.7773C87.4844 12.8711 87.6406 12.918 87.8281 12.918C87.9531 12.918 88.0703 12.8945 88.1797 12.8477C88.2891 12.8008 88.3789 12.7227 88.4492 12.6133L88.5078 12.6016C88.5391 12.6016 88.5664 12.6055 88.5898 12.6133C88.6211 12.6211 88.6523 12.625 88.6836 12.625C88.7305 12.625 88.7891 12.5977 88.8594 12.543C88.9375 12.4805 89.0195 12.4102 89.1055 12.332C89.1992 12.2539 89.293 12.1797 89.3867 12.1094C89.4805 12.0312 89.5703 11.9766 89.6562 11.9453C89.7109 11.8359 89.7617 11.7266 89.8086 11.6172C89.8633 11.5078 89.9414 11.4219 90.043 11.3594V11.0195C90.1211 10.9336 90.2031 10.8555 90.2891 10.7852C90.3828 10.7148 90.4531 10.625 90.5 10.5156C90.5391 10.5312 90.5742 10.543 90.6055 10.5508C90.6445 10.5586 90.6836 10.5625 90.7227 10.5625C90.7617 10.5625 90.8008 10.5586 90.8398 10.5508C90.8867 10.543 90.9297 10.5312 90.9688 10.5156C91.0312 10.6016 91.0781 10.6992 91.1094 10.8086C91.1484 10.9102 91.1953 11.0078 91.25 11.1016C91.1797 11.2422 91.0977 11.4102 91.0039 11.6055C90.9102 11.8008 90.8086 11.9961 90.6992 12.1914C90.5898 12.3867 90.4727 12.5742 90.3477 12.7539C90.2305 12.9258 90.1133 13.0586 89.9961 13.1523C89.9727 13.1758 89.9219 13.2031 89.8438 13.2344C89.7578 13.2969 89.6797 13.3555 89.6094 13.4102C89.5391 13.4727 89.4727 13.543 89.4102 13.6211C89.1836 13.6914 88.9648 13.7852 88.7539 13.9023C88.5508 14.0195 88.3477 14.1328 88.1445 14.2422C88.0508 14.2188 87.9492 14.207 87.8398 14.207C87.7461 14.207 87.6523 14.2109 87.5586 14.2188C87.4648 14.2344 87.3633 14.2422 87.2539 14.2422C87.2227 14.2031 87.1758 14.1758 87.1133 14.1602C87.0586 14.1523 87.0391 14.1133 87.0547 14.043C86.7891 14.0273 86.5742 13.9531 86.4102 13.8203C86.2461 13.6953 86.1055 13.5391 85.9883 13.3516C85.8789 13.1641 85.7891 12.9609 85.7188 12.7422C85.6484 12.5234 85.5742 12.3125 85.4961 12.1094V12.0742C85.4961 12.0352 85.5117 12.0117 85.543 12.0039C85.5742 11.9961 85.5898 11.9727 85.5898 11.9336C85.5898 11.918 85.5859 11.9062 85.5781 11.8984C85.5547 11.8125 85.5352 11.7383 85.5195 11.6758C85.5039 11.6133 85.4961 11.5391 85.4961 11.4531C85.4961 11.3281 85.5039 11.207 85.5195 11.0898C85.5352 10.9648 85.543 10.8398 85.543 10.7148C85.543 10.5898 85.5273 10.4805 85.4961 10.3867C85.5273 10.3477 85.5547 10.2969 85.5781 10.2344C85.5938 10.1641 85.6055 10.0938 85.6133 10.0234C85.6211 9.95312 85.625 9.88281 85.625 9.8125C85.6328 9.74219 85.6445 9.67969 85.6602 9.625C85.6289 9.53906 85.6016 9.46484 85.5781 9.40234C85.5547 9.33203 85.543 9.25 85.543 9.15625V9.07422C85.6211 8.94141 85.6875 8.80469 85.7422 8.66406C85.7969 8.52344 85.8555 8.37891 85.918 8.23047V8.19531C85.918 7.96875 85.9102 7.74219 85.8945 7.51562C85.8789 7.28906 85.8711 7.0625 85.8711 6.83594V6.61328C85.8711 6.53516 85.875 6.46094 85.8828 6.39062C85.9453 6.35938 85.9922 6.31641 86.0234 6.26172C86.0547 6.20703 86.1016 6.16406 86.1641 6.13281H86.5508L86.6211 6.01562C86.6445 5.97656 86.6602 5.93359 86.668 5.88672C86.7539 5.86328 86.8359 5.83203 86.9141 5.79297C87 5.74609 87.0781 5.69922 87.1484 5.65234C87.2578 5.58984 87.3555 5.53516 87.4414 5.48828C87.5352 5.43359 87.625 5.39062 87.7109 5.35938C87.8047 5.32031 87.9023 5.28906 88.0039 5.26562C88.1055 5.24219 88.2227 5.22266 88.3555 5.20703C88.418 5.20703 88.457 5.19531 88.4727 5.17188C88.4961 5.14844 88.5273 5.12109 88.5664 5.08984C88.6602 5.10547 88.7539 5.12109 88.8477 5.13672C88.9414 5.14453 89.0352 5.14844 89.1289 5.14844C89.3164 5.14844 89.4922 5.11328 89.6562 5.04297C89.8906 5.04297 90.1211 5.03906 90.3477 5.03125C90.582 5.02344 90.8164 5.01953 91.0508 5.01953C91.2539 5.01953 91.457 5.02734 91.6602 5.04297C91.8633 5.05859 92.0625 5.08594 92.2578 5.125C92.3281 5.10156 92.4062 5.08984 92.4922 5.08984C92.5859 5.08984 92.6797 5.10156 92.7734 5.125C92.875 5.14062 92.9727 5.14062 93.0664 5.125C93.0742 5.21094 93.0938 5.28516 93.125 5.34766C93.1641 5.40234 93.1836 5.46875 93.1836 5.54688ZM98.8203 11.5234C98.8203 11.6562 98.7852 11.7734 98.7148 11.875C98.6523 11.9688 98.6289 12.0859 98.6445 12.2266C98.5352 12.2891 98.4453 12.3711 98.375 12.4727C98.3047 12.5742 98.2383 12.6797 98.1758 12.7891C97.6602 13.125 97.1055 13.3945 96.5117 13.5977C95.9258 13.8086 95.3203 13.9141 94.6953 13.9141C94.6562 13.9141 94.6211 13.8945 94.5898 13.8555C94.5586 13.8242 94.5273 13.7891 94.4961 13.75C94.4648 13.7109 94.4297 13.6719 94.3906 13.6328C94.3594 13.6016 94.3203 13.5859 94.2734 13.5859C94.2188 13.5859 94.1758 13.5977 94.1445 13.6211C94.1445 13.6055 94.1445 13.5898 94.1445 13.5742C94.1523 13.5664 94.1562 13.5547 94.1562 13.5391C94.1562 13.4453 94.1445 13.3477 94.1211 13.2461C94.0977 13.1523 94.0859 13.0586 94.0859 12.9648C94.0859 12.8555 94.1055 12.7656 94.1445 12.6953H94.2852C94.3633 12.6953 94.4375 12.6914 94.5078 12.6836C94.5859 12.668 94.668 12.6602 94.7539 12.6602C94.8398 12.6602 94.918 12.6836 94.9883 12.7305C95.418 12.7148 95.8242 12.6367 96.207 12.4961C96.5977 12.3477 96.9922 12.2031 97.3906 12.0625C97.4531 11.9766 97.4883 11.8828 97.4961 11.7812C97.5117 11.6719 97.543 11.5703 97.5898 11.4766C97.3867 11.3047 97.1797 11.1719 96.9688 11.0781C96.7656 10.9766 96.5273 10.9414 96.2539 10.9727C96.0898 10.8711 95.9141 10.8125 95.7266 10.7969C95.5469 10.7812 95.3633 10.7578 95.1758 10.7266C95.1289 10.7188 95.0781 10.7109 95.0234 10.7031C94.9766 10.6875 94.9258 10.6797 94.8711 10.6797C94.832 10.6797 94.793 10.6914 94.7539 10.7148C94.7227 10.7305 94.7148 10.7578 94.7305 10.7969C94.6914 10.7344 94.6367 10.6992 94.5664 10.6914C94.5039 10.6758 94.4492 10.6445 94.4023 10.5977C94.1523 10.582 93.9336 10.5391 93.7461 10.4688C93.5586 10.3906 93.3516 10.3047 93.125 10.2109C93.0625 10.1875 93 10.1719 92.9375 10.1641C92.8828 10.1484 92.8281 10.125 92.7734 10.0938C92.6328 10.0234 92.5195 9.92969 92.4336 9.8125C92.3477 9.69531 92.2812 9.56641 92.2344 9.42578C92.1797 9.27734 92.1406 9.125 92.1172 8.96875C92.0938 8.8125 92.0703 8.66797 92.0469 8.53516C92.1172 8.41016 92.1836 8.28125 92.2461 8.14844C92.3008 8.01562 92.3477 7.875 92.3867 7.72656C92.4336 7.70312 92.4805 7.68359 92.5273 7.66797C92.5742 7.65234 92.625 7.63281 92.6797 7.60938C92.6719 7.59375 92.668 7.57422 92.668 7.55078C92.668 7.51172 92.6797 7.47266 92.7031 7.43359C92.7344 7.39453 92.7422 7.35547 92.7266 7.31641C92.8984 7.16016 93.0625 7 93.2188 6.83594C93.3828 6.66406 93.5234 6.47656 93.6406 6.27344C93.7578 6.23438 93.8516 6.17578 93.9219 6.09766C93.9922 6.01953 94.0625 5.94141 94.1328 5.86328C94.2031 5.77734 94.2812 5.70312 94.3672 5.64062C94.4531 5.57031 94.5625 5.52734 94.6953 5.51172C94.7266 5.45703 94.7695 5.41406 94.8242 5.38281C94.8789 5.34375 94.9336 5.30859 94.9883 5.27734C95.043 5.24609 95.0938 5.21094 95.1406 5.17188C95.1875 5.13281 95.2227 5.07812 95.2461 5.00781C95.3711 5.00781 95.4844 4.98438 95.5859 4.9375C95.6953 4.89062 95.8008 4.83984 95.9023 4.78516C96.0039 4.73047 96.1055 4.67969 96.207 4.63281C96.3164 4.58594 96.4336 4.5625 96.5586 4.5625C96.5898 4.5625 96.6211 4.56641 96.6523 4.57422C96.6836 4.57422 96.7188 4.57812 96.7578 4.58594C96.8125 4.64062 96.8477 4.70703 96.8633 4.78516C96.8867 4.85547 96.9023 4.93359 96.9102 5.01953C96.918 5.10547 96.9219 5.19141 96.9219 5.27734C96.9297 5.36328 96.9453 5.44141 96.9688 5.51172C96.8984 5.64453 96.8203 5.77734 96.7344 5.91016C96.6562 6.04297 96.5508 6.14453 96.418 6.21484H96.3945C96.3398 6.22266 96.2891 6.21094 96.2422 6.17969C96.1953 6.14844 96.1406 6.13281 96.0781 6.13281C96.0391 6.13281 96.0078 6.14453 95.9844 6.16797L95.9258 6.22656C95.9102 6.24219 95.8867 6.25781 95.8555 6.27344C95.832 6.28906 95.7969 6.28906 95.75 6.27344C95.6406 6.3125 95.5977 6.37891 95.6211 6.47266C95.4727 6.48828 95.3477 6.53516 95.2461 6.61328C95.1445 6.68359 95.0508 6.76562 94.9648 6.85938C94.8789 6.94531 94.793 7.02734 94.707 7.10547C94.6211 7.17578 94.5195 7.21484 94.4023 7.22266C94.2695 7.45703 94.1055 7.66406 93.9102 7.84375C93.7227 8.02344 93.5664 8.22656 93.4414 8.45312C93.4648 8.51562 93.4805 8.58203 93.4883 8.65234C93.4961 8.72266 93.5078 8.79688 93.5234 8.875C93.5938 8.96875 93.6758 9.05078 93.7695 9.12109C93.8711 9.19141 93.9688 9.26172 94.0625 9.33203H94.0977C94.2539 9.33203 94.3984 9.36328 94.5312 9.42578C94.6641 9.48047 94.8047 9.50781 94.9531 9.50781C95.0312 9.50781 95.0977 9.49219 95.1523 9.46094C95.3555 9.50781 95.5547 9.54688 95.75 9.57812C95.9531 9.60938 96.1562 9.63281 96.3594 9.64844C96.4609 9.66406 96.5625 9.67188 96.6641 9.67188C96.7734 9.67188 96.875 9.68359 96.9688 9.70703C97.0547 9.73047 97.1406 9.76172 97.2266 9.80078C97.3125 9.83203 97.3984 9.86719 97.4844 9.90625C97.6641 9.98438 97.832 10.0703 97.9883 10.1641C98.1523 10.2578 98.2969 10.3711 98.4219 10.5039C98.5469 10.6289 98.6445 10.7773 98.7148 10.9492C98.7852 11.1133 98.8203 11.3047 98.8203 11.5234Z" fill="white"/>
</svg>
