<svg width="245" height="83" viewBox="0 0 245 83" fill="none" xmlns="http://www.w3.org/2000/svg">
<path d="M153.921 77.8125H150.929V3.89062C150.929 1.74187 149.323 0 147.34 0H97.0902C95.1078 0 93.5009 1.74187 93.5009 3.89062V77.8125H90.5098C89.5187 77.8125 88.7152 78.6835 88.7152 79.7578V83H155.715V79.7578C155.715 78.6835 154.912 77.8125 153.921 77.8125ZM107.858 12.3203C107.858 11.246 108.662 10.375 109.653 10.375H115.635C116.626 10.375 117.429 11.246 117.429 12.3203V18.8047C117.429 19.879 116.626 20.75 115.635 20.75H109.653C108.662 20.75 107.858 19.879 107.858 18.8047V12.3203ZM107.858 27.8828C107.858 26.8085 108.662 25.9375 109.653 25.9375H115.635C116.626 25.9375 117.429 26.8085 117.429 27.8828V34.3672C117.429 35.4415 116.626 36.3125 115.635 36.3125H109.653C108.662 36.3125 107.858 35.4415 107.858 34.3672V27.8828ZM115.635 51.875H109.653C108.662 51.875 107.858 51.004 107.858 49.9297V43.4453C107.858 42.371 108.662 41.5 109.653 41.5H115.635C116.626 41.5 117.429 42.371 117.429 43.4453V49.9297C117.429 51.004 116.626 51.875 115.635 51.875ZM127.001 77.8125H117.429V64.1953C117.429 63.121 118.233 62.25 119.224 62.25H125.206C126.197 62.25 127.001 63.121 127.001 64.1953V77.8125ZM136.572 49.9297C136.572 51.004 135.769 51.875 134.778 51.875H128.796C127.804 51.875 127.001 51.004 127.001 49.9297V43.4453C127.001 42.371 127.804 41.5 128.796 41.5H134.778C135.769 41.5 136.572 42.371 136.572 43.4453V49.9297ZM136.572 34.3672C136.572 35.4415 135.769 36.3125 134.778 36.3125H128.796C127.804 36.3125 127.001 35.4415 127.001 34.3672V27.8828C127.001 26.8085 127.804 25.9375 128.796 25.9375H134.778C135.769 25.9375 136.572 26.8085 136.572 27.8828V34.3672ZM136.572 18.8047C136.572 19.879 135.769 20.75 134.778 20.75H128.796C127.804 20.75 127.001 19.879 127.001 18.8047V12.3203C127.001 11.246 127.804 10.375 128.796 10.375H134.778C135.769 10.375 136.572 11.246 136.572 12.3203V18.8047Z" fill="black" fill-opacity="0.5"/>
<path d="M41.9795 49L41.8895 32.305L33.7895 45.895H29.8295L21.7745 32.755V49H13.5395V17.5H20.8745L31.9445 35.68L42.7445 17.5H50.0795L50.1695 49H41.9795Z" fill="#470283"/>
<path d="M67.2741 49.18C65.0541 49.18 63.0441 48.67 61.2441 47.65C59.4741 46.63 58.0791 45.22 57.0591 43.42C56.0391 41.59 55.5291 39.535 55.5291 37.255C55.5291 34.975 56.0391 32.935 57.0591 31.135C58.0791 29.305 59.4741 27.88 61.2441 26.86C63.0441 25.84 65.0541 25.33 67.2741 25.33C69.4941 25.33 71.4891 25.84 73.2591 26.86C75.0591 27.88 76.4691 29.305 77.4891 31.135C78.5091 32.935 79.0191 34.975 79.0191 37.255C79.0191 39.535 78.5091 41.59 77.4891 43.42C76.4691 45.22 75.0591 46.63 73.2591 47.65C71.4891 48.67 69.4941 49.18 67.2741 49.18ZM67.2741 47.155C69.0741 47.155 70.6791 46.735 72.0891 45.895C73.5291 45.055 74.6541 43.885 75.4641 42.385C76.3041 40.885 76.7241 39.175 76.7241 37.255C76.7241 35.335 76.3041 33.625 75.4641 32.125C74.6541 30.625 73.5291 29.455 72.0891 28.615C70.6791 27.775 69.0741 27.355 67.2741 27.355C65.4741 27.355 63.8541 27.775 62.4141 28.615C61.0041 29.455 59.8791 30.625 59.0391 32.125C58.2291 33.625 57.8241 35.335 57.8241 37.255C57.8241 39.175 58.2291 40.885 59.0391 42.385C59.8791 43.885 61.0041 45.055 62.4141 45.895C63.8541 46.735 65.4741 47.155 67.2741 47.155ZM115.249 25.33C118.159 25.33 120.439 26.185 122.089 27.895C123.769 29.605 124.609 32.065 124.609 35.275V49H122.359V35.455C122.359 32.815 121.714 30.805 120.424 29.425C119.134 28.045 117.334 27.355 115.024 27.355C112.384 27.355 110.284 28.18 108.724 29.83C107.194 31.48 106.429 33.7 106.429 36.49V49H104.179V35.455C104.179 32.815 103.534 30.805 102.244 29.425C100.954 28.045 99.1544 27.355 96.8444 27.355C94.2044 27.355 92.1044 28.18 90.5444 29.83C89.0144 31.48 88.2494 33.7 88.2494 36.49V49H85.9994V25.51H88.1594V30.55C88.9394 28.9 90.0944 27.625 91.6244 26.725C93.1844 25.795 95.0294 25.33 97.1594 25.33C99.2894 25.33 101.089 25.81 102.559 26.77C104.059 27.73 105.124 29.14 105.754 31C106.534 29.26 107.749 27.88 109.399 26.86C111.079 25.84 113.029 25.33 115.249 25.33ZM184.111 37.795H163.906C163.966 39.625 164.431 41.26 165.301 42.7C166.171 44.11 167.341 45.205 168.811 45.985C170.311 46.765 171.991 47.155 173.851 47.155C175.381 47.155 176.791 46.885 178.081 46.345C179.401 45.775 180.496 44.95 181.366 43.87L182.671 45.355C181.651 46.585 180.361 47.53 178.801 48.19C177.271 48.85 175.606 49.18 173.806 49.18C171.466 49.18 169.381 48.67 167.551 47.65C165.721 46.63 164.281 45.22 163.231 43.42C162.211 41.62 161.701 39.565 161.701 37.255C161.701 34.975 162.181 32.935 163.141 31.135C164.131 29.305 165.481 27.88 167.191 26.86C168.901 25.84 170.821 25.33 172.951 25.33C175.081 25.33 176.986 25.84 178.666 26.86C180.376 27.85 181.711 29.245 182.671 31.045C183.661 32.845 184.156 34.885 184.156 37.165L184.111 37.795ZM172.951 27.31C171.301 27.31 169.816 27.685 168.496 28.435C167.176 29.155 166.111 30.19 165.301 31.54C164.521 32.86 164.071 34.36 163.951 36.04H181.951C181.861 34.36 181.411 32.86 180.601 31.54C179.791 30.22 178.726 29.185 177.406 28.435C176.086 27.685 174.601 27.31 172.951 27.31ZM193.277 30.64C193.997 28.93 195.122 27.625 196.652 26.725C198.182 25.795 200.042 25.33 202.232 25.33V27.535L201.692 27.49C199.082 27.49 197.042 28.315 195.572 29.965C194.102 31.585 193.367 33.85 193.367 36.76V49H191.117V25.51H193.277V30.64ZM229.361 25.51V46.48C229.361 50.38 228.416 53.26 226.526 55.12C224.636 56.98 221.786 57.91 217.976 57.91C215.816 57.91 213.776 57.58 211.856 56.92C209.936 56.26 208.391 55.345 207.221 54.175L208.436 52.465C209.606 53.545 211.016 54.385 212.666 54.985C214.316 55.585 216.071 55.885 217.931 55.885C221.051 55.885 223.361 55.135 224.861 53.635C226.361 52.165 227.111 49.87 227.111 46.75V42.79C226.151 44.5 224.816 45.82 223.106 46.75C221.396 47.68 219.476 48.145 217.346 48.145C215.156 48.145 213.161 47.665 211.361 46.705C209.591 45.715 208.196 44.35 207.176 42.61C206.156 40.87 205.646 38.905 205.646 36.715C205.646 34.525 206.156 32.56 207.176 30.82C208.196 29.08 209.591 27.73 211.361 26.77C213.161 25.81 215.156 25.33 217.346 25.33C219.506 25.33 221.456 25.81 223.196 26.77C224.936 27.73 226.271 29.08 227.201 30.82V25.51H229.361ZM217.526 46.12C219.356 46.12 221.006 45.73 222.476 44.95C223.946 44.14 225.086 43.03 225.896 41.62C226.736 40.18 227.156 38.545 227.156 36.715C227.156 34.885 226.736 33.265 225.896 31.855C225.086 30.445 223.946 29.35 222.476 28.57C221.006 27.76 219.356 27.355 217.526 27.355C215.696 27.355 214.046 27.76 212.576 28.57C211.136 29.35 209.996 30.445 209.156 31.855C208.346 33.265 207.941 34.885 207.941 36.715C207.941 38.545 208.346 40.18 209.156 41.62C209.996 43.03 211.136 44.14 212.576 44.95C214.046 45.73 215.696 46.12 217.526 46.12Z" fill="white"/>
<path d="M145.69 25.33C147.88 25.33 149.86 25.84 151.63 26.86C153.4 27.85 154.78 29.26 155.77 31.09C156.79 32.89 157.3 34.945 157.3 37.255C157.3 39.565 156.79 41.62 155.77 43.42C154.78 45.22 153.4 46.63 151.63 47.65C149.86 48.67 147.88 49.18 145.69 49.18C143.59 49.18 141.685 48.685 139.975 47.695C138.295 46.675 136.99 45.265 136.06 43.465V49H133.9V15.61H136.15V30.865C137.08 29.125 138.385 27.775 140.065 26.815C141.745 25.825 143.62 25.33 145.69 25.33ZM145.555 47.155C147.355 47.155 148.975 46.735 150.415 45.895C151.855 45.055 152.98 43.885 153.79 42.385C154.63 40.885 155.05 39.175 155.05 37.255C155.05 35.335 154.63 33.625 153.79 32.125C152.98 30.625 151.855 29.455 150.415 28.615C148.975 27.775 147.355 27.355 145.555 27.355C143.755 27.355 142.135 27.775 140.695 28.615C139.285 29.455 138.16 30.625 137.32 32.125C136.51 33.625 136.105 35.335 136.105 37.255C136.105 39.175 136.51 40.885 137.32 42.385C138.16 43.885 139.285 45.055 140.695 45.895C142.135 46.735 143.755 47.155 145.555 47.155Z" fill="#782BDA"/>
<path d="M86.9797 68.1C86.1264 68.1 85.3064 67.98 84.5197 67.74C83.7464 67.4867 83.1397 67.1733 82.6997 66.8L83.3397 65.68C83.7797 66.0267 84.333 66.3133 84.9997 66.54C85.6664 66.7533 86.3597 66.86 87.0797 66.86C88.0397 66.86 88.7464 66.7133 89.1997 66.42C89.6664 66.1133 89.8997 65.6867 89.8997 65.14C89.8997 64.7533 89.773 64.4533 89.5197 64.24C89.2664 64.0133 88.9464 63.8467 88.5597 63.74C88.173 63.62 87.6597 63.5067 87.0197 63.4C86.1664 63.24 85.4797 63.08 84.9597 62.92C84.4397 62.7467 83.993 62.46 83.6197 62.06C83.2597 61.66 83.0797 61.1067 83.0797 60.4C83.0797 59.52 83.4464 58.8 84.1797 58.24C84.913 57.68 85.933 57.4 87.2397 57.4C87.9197 57.4 88.5997 57.4933 89.2797 57.68C89.9597 57.8533 90.5197 58.0867 90.9597 58.38L90.3397 59.52C89.473 58.92 88.4397 58.62 87.2397 58.62C86.333 58.62 85.6464 58.78 85.1797 59.1C84.7264 59.42 84.4997 59.84 84.4997 60.36C84.4997 60.76 84.6264 61.08 84.8797 61.32C85.1464 61.56 85.473 61.74 85.8597 61.86C86.2464 61.9667 86.7797 62.08 87.4597 62.2C88.2997 62.36 88.973 62.52 89.4797 62.68C89.9864 62.84 90.4197 63.1133 90.7797 63.5C91.1397 63.8867 91.3197 64.42 91.3197 65.1C91.3197 66.02 90.933 66.7533 90.1597 67.3C89.3997 67.8333 88.3397 68.1 86.9797 68.1ZM98.2448 68.1C97.2315 68.1 96.3182 67.8733 95.5048 67.42C94.6915 66.9533 94.0515 66.3133 93.5848 65.5C93.1182 64.6867 92.8848 63.7667 92.8848 62.74C92.8848 61.7133 93.1182 60.7933 93.5848 59.98C94.0515 59.1667 94.6915 58.5333 95.5048 58.08C96.3182 57.6267 97.2315 57.4 98.2448 57.4C99.2582 57.4 100.172 57.6267 100.985 58.08C101.798 58.5333 102.432 59.1667 102.885 59.98C103.352 60.7933 103.585 61.7133 103.585 62.74C103.585 63.7667 103.352 64.6867 102.885 65.5C102.432 66.3133 101.798 66.9533 100.985 67.42C100.172 67.8733 99.2582 68.1 98.2448 68.1ZM98.2448 66.84C98.9915 66.84 99.6582 66.6733 100.245 66.34C100.845 65.9933 101.312 65.5067 101.645 64.88C101.978 64.2533 102.145 63.54 102.145 62.74C102.145 61.94 101.978 61.2267 101.645 60.6C101.312 59.9733 100.845 59.4933 100.245 59.16C99.6582 58.8133 98.9915 58.64 98.2448 58.64C97.4982 58.64 96.8248 58.8133 96.2248 59.16C95.6382 59.4933 95.1715 59.9733 94.8248 60.6C94.4915 61.2267 94.3248 61.94 94.3248 62.74C94.3248 63.54 94.4915 64.2533 94.8248 64.88C95.1715 65.5067 95.6382 65.9933 96.2248 66.34C96.8248 66.6733 97.4982 66.84 98.2448 66.84ZM106.484 53.16H107.904V68H106.484V53.16ZM121.335 57.48V68H119.975V66.08C119.602 66.72 119.088 67.22 118.435 67.58C117.782 67.9267 117.035 68.1 116.195 68.1C114.822 68.1 113.735 67.72 112.935 66.96C112.148 66.1867 111.755 65.06 111.755 63.58V57.48H113.175V63.44C113.175 64.5467 113.448 65.3867 113.995 65.96C114.542 66.5333 115.322 66.82 116.335 66.82C117.442 66.82 118.315 66.4867 118.955 65.82C119.595 65.14 119.915 64.2 119.915 63V57.48H121.335ZM129.672 68.1C128.632 68.1 127.699 67.8733 126.872 67.42C126.059 66.9667 125.419 66.3333 124.952 65.52C124.485 64.6933 124.252 63.7667 124.252 62.74C124.252 61.7133 124.485 60.7933 124.952 59.98C125.419 59.1667 126.059 58.5333 126.872 58.08C127.699 57.6267 128.632 57.4 129.672 57.4C130.579 57.4 131.385 57.58 132.092 57.94C132.812 58.2867 133.379 58.8 133.792 59.48L132.732 60.2C132.385 59.68 131.945 59.2933 131.412 59.04C130.879 58.7733 130.299 58.64 129.672 58.64C128.912 58.64 128.225 58.8133 127.612 59.16C127.012 59.4933 126.539 59.9733 126.192 60.6C125.859 61.2267 125.692 61.94 125.692 62.74C125.692 63.5533 125.859 64.2733 126.192 64.9C126.539 65.5133 127.012 65.9933 127.612 66.34C128.225 66.6733 128.912 66.84 129.672 66.84C130.299 66.84 130.879 66.7133 131.412 66.46C131.945 66.2067 132.385 65.82 132.732 65.3L133.792 66.02C133.379 66.7 132.812 67.22 132.092 67.58C131.372 67.9267 130.565 68.1 129.672 68.1ZM128.832 72.4C128.179 72.4 127.619 72.2467 127.152 71.94L127.492 71.18C127.879 71.4333 128.319 71.56 128.812 71.56C129.212 71.56 129.519 71.48 129.732 71.32C129.945 71.16 130.052 70.9267 130.052 70.62C130.052 70.34 129.945 70.1133 129.732 69.94C129.532 69.78 129.225 69.7 128.812 69.7H128.352L128.832 67.88H129.692L129.392 69.04C129.939 69.0933 130.359 69.26 130.652 69.54C130.945 69.8333 131.092 70.2067 131.092 70.66C131.092 71.1933 130.885 71.6133 130.472 71.92C130.059 72.24 129.512 72.4 128.832 72.4ZM140.706 68.1C139.692 68.1 138.779 67.8733 137.966 67.42C137.152 66.9533 136.512 66.3133 136.046 65.5C135.579 64.6867 135.346 63.7667 135.346 62.74C135.346 61.7133 135.579 60.7933 136.046 59.98C136.512 59.1667 137.152 58.5333 137.966 58.08C138.779 57.6267 139.692 57.4 140.706 57.4C141.719 57.4 142.632 57.6267 143.446 58.08C144.259 58.5333 144.892 59.1667 145.346 59.98C145.812 60.7933 146.046 61.7133 146.046 62.74C146.046 63.7667 145.812 64.6867 145.346 65.5C144.892 66.3133 144.259 66.9533 143.446 67.42C142.632 67.8733 141.719 68.1 140.706 68.1ZM140.706 66.84C141.452 66.84 142.119 66.6733 142.706 66.34C143.306 65.9933 143.772 65.5067 144.106 64.88C144.439 64.2533 144.606 63.54 144.606 62.74C144.606 61.94 144.439 61.2267 144.106 60.6C143.772 59.9733 143.306 59.4933 142.706 59.16C142.119 58.8133 141.452 58.64 140.706 58.64C139.959 58.64 139.286 58.8133 138.686 59.16C138.099 59.4933 137.632 59.9733 137.286 60.6C136.952 61.2267 136.786 61.94 136.786 62.74C136.786 63.54 136.952 64.2533 137.286 64.88C137.632 65.5067 138.099 65.9933 138.686 66.34C139.286 66.6733 139.959 66.84 140.706 66.84ZM142.046 55.72C141.739 55.72 141.466 55.6533 141.226 55.52C140.986 55.3733 140.726 55.1733 140.446 54.92C140.206 54.72 140.012 54.58 139.866 54.5C139.732 54.4067 139.586 54.36 139.426 54.36C139.119 54.36 138.872 54.4733 138.686 54.7C138.499 54.9267 138.399 55.24 138.386 55.64H137.526C137.552 54.9733 137.726 54.44 138.046 54.04C138.366 53.64 138.792 53.44 139.326 53.44C139.632 53.44 139.899 53.5067 140.126 53.64C140.366 53.7733 140.639 53.9733 140.946 54.24C141.159 54.4267 141.339 54.5667 141.486 54.66C141.632 54.7533 141.786 54.8 141.946 54.8C142.239 54.8 142.479 54.6933 142.666 54.48C142.852 54.2533 142.959 53.9467 142.986 53.56H143.846C143.819 54.2133 143.646 54.74 143.326 55.14C143.006 55.5267 142.579 55.72 142.046 55.72ZM158.105 63.18H149.305C149.385 64.2733 149.805 65.16 150.565 65.84C151.325 66.5067 152.285 66.84 153.445 66.84C154.098 66.84 154.698 66.7267 155.245 66.5C155.792 66.26 156.265 65.9133 156.665 65.46L157.465 66.38C156.998 66.94 156.412 67.3667 155.705 67.66C155.012 67.9533 154.245 68.1 153.405 68.1C152.325 68.1 151.365 67.8733 150.525 67.42C149.698 66.9533 149.052 66.3133 148.585 65.5C148.118 64.6867 147.885 63.7667 147.885 62.74C147.885 61.7133 148.105 60.7933 148.545 59.98C148.998 59.1667 149.612 58.5333 150.385 58.08C151.172 57.6267 152.052 57.4 153.025 57.4C153.998 57.4 154.872 57.6267 155.645 58.08C156.418 58.5333 157.025 59.1667 157.465 59.98C157.905 60.78 158.125 61.7 158.125 62.74L158.105 63.18ZM153.025 58.62C152.012 58.62 151.158 58.9467 150.465 59.6C149.785 60.24 149.398 61.08 149.305 62.12H156.765C156.672 61.08 156.278 60.24 155.585 59.6C154.905 58.9467 154.052 58.62 153.025 58.62ZM163.835 68.1C162.982 68.1 162.162 67.98 161.375 67.74C160.602 67.4867 159.995 67.1733 159.555 66.8L160.195 65.68C160.635 66.0267 161.188 66.3133 161.855 66.54C162.522 66.7533 163.215 66.86 163.935 66.86C164.895 66.86 165.602 66.7133 166.055 66.42C166.522 66.1133 166.755 65.6867 166.755 65.14C166.755 64.7533 166.628 64.4533 166.375 64.24C166.122 64.0133 165.802 63.8467 165.415 63.74C165.028 63.62 164.515 63.5067 163.875 63.4C163.022 63.24 162.335 63.08 161.815 62.92C161.295 62.7467 160.848 62.46 160.475 62.06C160.115 61.66 159.935 61.1067 159.935 60.4C159.935 59.52 160.302 58.8 161.035 58.24C161.768 57.68 162.788 57.4 164.095 57.4C164.775 57.4 165.455 57.4933 166.135 57.68C166.815 57.8533 167.375 58.0867 167.815 58.38L167.195 59.52C166.328 58.92 165.295 58.62 164.095 58.62C163.188 58.62 162.502 58.78 162.035 59.1C161.582 59.42 161.355 59.84 161.355 60.36C161.355 60.76 161.482 61.08 161.735 61.32C162.002 61.56 162.328 61.74 162.715 61.86C163.102 61.9667 163.635 62.08 164.315 62.2C165.155 62.36 165.828 62.52 166.335 62.68C166.842 62.84 167.275 63.1133 167.635 63.5C167.995 63.8867 168.175 64.42 168.175 65.1C168.175 66.02 167.788 66.7533 167.015 67.3C166.255 67.8333 165.195 68.1 163.835 68.1Z" fill="white"/>
</svg>
